{"glyphs":{"0":{"ha":782,"x_min":63,"x_max":719,"o":"m 400 892 q 547 863 486 892 q 646 778 607 833 q 702 640 685 722 q 719 454 719 558 q 701 265 719 350 q 641 119 682 181 q 536 25 600 58 q 382 -8 472 -8 q 235 21 296 -8 q 136 106 175 50 q 80 244 97 163 q 63 432 63 326 q 81 621 63 536 q 141 766 100 706 q 246 859 182 826 q 400 892 310 892 m 382 771 q 310 748 339 771 q 265 683 282 725 q 242 581 249 640 q 235 447 235 521 q 241 317 235 378 q 265 210 247 256 q 314 139 282 165 q 399 113 346 113 q 470 136 442 113 q 515 202 499 160 q 539 304 532 244 q 546 438 546 364 q 540 567 546 507 q 517 673 535 628 q 467 744 499 718 q 382 771 435 771 z "},"1":{"ha":535,"x_min":0,"x_max":396,"o":"m 396 885 l 396 0 l 238 0 l 238 700 q 149 628 194 660 q 63 586 103 597 l 0 700 q 67 728 33 714 q 133 764 100 743 q 202 813 167 785 q 278 885 238 842 l 396 885 z "},"2":{"ha":683,"x_min":49,"x_max":626,"o":"m 54 814 q 117 840 82 826 q 192 865 153 854 q 274 884 232 876 q 357 892 315 892 q 450 880 406 892 q 528 840 494 868 q 583 766 563 813 q 603 651 603 719 q 543 472 603 561 q 378 267 483 382 l 250 126 l 626 126 l 626 0 l 49 0 l 50 131 q 88 172 61 143 q 145 231 115 200 q 202 290 175 263 q 240 331 229 318 q 331 438 294 393 q 390 519 368 483 q 422 587 413 556 q 431 654 431 618 q 401 739 431 707 q 324 771 371 771 q 222 751 269 771 q 108 704 174 732 l 54 814 z "},"3":{"ha":694,"x_min":49,"x_max":631,"o":"m 343 892 q 528 838 465 892 q 590 699 590 785 q 576 627 590 658 q 541 573 563 596 q 494 535 519 550 q 449 510 469 519 q 583 417 536 483 q 631 275 631 351 q 615 172 631 222 q 561 81 599 121 q 462 16 524 40 q 308 -8 400 -8 q 179 13 246 -8 q 49 64 113 35 l 96 179 q 207 132 158 151 q 304 113 256 113 q 366 122 336 113 q 419 151 396 132 q 456 201 442 171 q 469 272 469 232 q 432 376 469 336 q 344 415 394 415 q 298 413 321 415 q 256 408 275 411 q 225 401 238 404 q 210 399 213 399 l 167 507 q 263 540 217 524 q 346 574 310 556 q 403 619 382 593 q 425 683 425 646 q 397 749 425 726 q 321 771 369 771 q 272 767 294 771 q 227 756 250 764 q 178 739 204 749 q 121 717 153 729 l 67 824 q 133 851 101 839 q 197 873 164 864 q 265 887 229 882 q 343 892 300 892 z "},"4":{"ha":729,"x_min":28,"x_max":708,"o":"m 417 244 l 28 244 l 28 333 l 281 885 l 443 885 l 200 364 l 417 364 l 417 647 l 574 675 l 574 364 l 708 364 l 686 244 l 574 244 l 574 0 l 417 0 l 417 244 z "},"5":{"ha":707,"x_min":63,"x_max":639,"o":"m 90 447 l 138 885 l 593 885 l 571 758 l 276 758 l 247 535 q 290 551 258 542 q 388 561 322 561 q 492 540 446 561 q 572 481 539 518 q 622 393 604 443 q 639 286 639 343 q 624 178 639 232 q 574 83 608 125 q 484 16 539 42 q 350 -10 429 -10 q 205 11 276 -10 q 63 64 133 32 l 110 179 q 222 132 174 151 q 319 113 269 113 q 434 156 400 113 q 468 288 468 200 q 430 399 468 361 q 329 438 392 438 q 257 432 288 438 q 205 419 226 426 q 172 406 183 413 q 156 399 160 400 l 90 447 z "},"6":{"ha":728,"x_min":63,"x_max":679,"o":"m 572 742 q 506 760 542 753 q 433 767 469 767 q 334 744 372 767 q 274 683 296 722 q 242 594 251 644 q 232 485 233 543 q 260 514 243 499 q 301 542 278 529 q 353 565 324 556 q 418 574 382 574 q 610 498 540 574 q 679 285 679 422 q 659 169 679 222 q 600 76 639 115 q 504 14 561 36 q 372 -8 447 -8 q 226 25 285 -8 q 131 118 167 58 q 78 260 94 178 q 63 442 63 343 q 83 612 63 531 q 149 754 104 693 q 266 852 194 815 q 439 889 338 889 q 535 878 490 889 q 615 851 579 867 l 572 742 m 388 454 q 333 446 360 454 q 286 426 307 438 q 251 403 265 414 q 232 389 236 393 q 272 178 238 246 q 385 110 306 110 q 487 158 456 110 q 518 283 518 206 q 490 405 518 356 q 388 454 461 454 z "},"7":{"ha":636,"x_min":7,"x_max":586,"o":"m 586 785 l 307 0 l 136 0 l 406 758 l 29 758 l 7 885 l 586 885 l 586 785 z "},"8":{"ha":728,"x_min":69,"x_max":658,"o":"m 363 -8 q 249 6 303 -8 q 156 48 196 19 q 93 119 117 76 q 69 221 69 163 q 84 297 69 263 q 123 360 99 332 q 178 413 147 389 q 240 456 208 436 q 135 547 178 492 q 93 678 93 603 q 114 760 93 721 q 172 828 135 799 q 260 874 210 857 q 369 892 311 892 q 472 876 424 892 q 554 832 519 860 q 609 766 589 804 q 629 683 629 728 q 617 616 629 647 q 585 558 606 585 q 540 508 565 531 q 486 465 514 485 q 550 422 519 447 q 605 367 581 397 q 644 301 629 336 q 658 229 658 267 q 635 131 658 175 q 573 56 613 88 q 479 8 533 25 q 363 -8 425 -8 m 235 226 q 271 138 235 175 q 374 101 307 101 q 457 138 425 101 q 489 224 489 175 q 477 275 489 250 q 448 322 465 300 q 409 364 431 344 q 367 399 388 383 q 316 366 340 383 q 274 328 292 349 q 245 282 256 307 q 235 226 235 257 m 464 682 q 438 753 464 725 q 364 782 411 782 q 286 757 315 782 q 257 685 257 732 q 267 631 257 656 q 292 587 276 607 q 326 552 307 567 q 364 526 344 538 q 434 583 404 549 q 464 682 464 618 z "},"9":{"ha":726,"x_min":49,"x_max":665,"o":"m 156 139 q 224 121 188 128 q 296 114 260 114 q 394 136 356 114 q 454 197 432 158 q 485 285 476 235 q 496 393 494 336 q 467 364 485 379 q 427 336 450 349 q 375 315 404 324 q 310 307 346 307 q 118 383 188 307 q 49 596 49 458 q 69 712 49 658 q 128 805 89 765 q 224 867 167 844 q 357 889 282 889 q 503 856 444 889 q 599 763 563 822 q 650 620 635 703 q 665 439 665 538 q 644 269 665 350 q 578 126 624 188 q 463 28 533 65 q 290 -8 392 -8 q 194 3 239 -8 q 113 29 149 14 l 156 139 m 340 426 q 394 435 368 426 q 442 454 421 443 q 477 476 463 465 q 496 489 492 486 q 457 702 492 633 q 344 771 422 771 q 242 722 274 771 q 210 597 210 674 q 217 530 210 561 q 239 476 224 499 q 279 440 254 453 q 340 426 304 426 z "}," ":{"ha":354,"x_min":0,"x_max":0,"o":""},"k":{"ha":722,"x_min":90,"x_max":694,"o":"m 249 1007 l 249 611 q 277 641 260 625 q 321 671 294 657 q 382 694 347 685 q 463 704 417 704 q 543 692 506 704 q 608 656 581 679 q 651 598 635 632 q 667 521 667 564 q 641 418 667 458 q 583 354 615 378 q 500 310 547 326 l 694 0 l 515 0 l 315 346 l 314 360 q 356 372 325 363 q 421 400 388 382 q 480 445 454 418 q 506 510 506 472 q 482 571 506 550 q 419 592 458 592 q 333 571 367 592 q 281 524 300 550 q 256 474 263 497 q 249 446 249 450 l 249 0 l 90 0 l 90 979 l 249 1007 z "},"n":{"ha":763,"x_min":35,"x_max":678,"o":"m 521 0 l 521 449 q 500 542 521 507 q 429 578 479 578 q 367 562 397 578 q 314 515 338 546 q 276 441 290 485 q 261 343 261 397 l 261 0 l 103 0 l 103 350 q 92 490 103 433 q 68 581 81 546 q 35 646 53 621 l 160 696 q 188 658 174 681 q 210 610 199 639 q 228 546 221 582 q 332 666 264 629 q 475 703 400 703 q 630 638 582 703 q 678 464 678 574 l 678 0 l 521 0 z "},"e":{"ha":657,"x_min":49,"x_max":615,"o":"m 49 329 q 74 493 49 422 q 145 612 100 564 q 251 684 190 660 q 383 708 313 708 q 490 693 446 708 q 561 651 533 678 q 602 589 589 625 q 615 511 615 553 q 588 416 615 461 q 508 337 560 371 q 382 283 456 303 q 217 261 308 263 q 230 201 221 229 q 256 151 239 172 q 301 117 274 129 q 371 104 329 104 q 436 111 401 104 q 500 128 471 118 q 568 153 535 139 l 610 54 q 532 22 574 36 q 449 0 496 10 q 349 -10 401 -10 q 211 15 268 -10 q 118 83 154 39 q 65 190 82 128 q 49 329 49 253 m 371 600 q 295 578 325 600 q 247 523 265 557 q 222 447 229 489 q 213 361 214 404 q 326 378 279 364 q 401 415 372 393 q 444 461 431 436 q 457 511 457 486 q 433 576 457 551 q 371 600 410 600 z "},"a":{"ha":744,"x_min":49,"x_max":715,"o":"m 649 335 q 659 195 649 251 q 682 104 669 139 q 715 39 697 63 l 592 -11 q 558 32 574 7 q 535 85 546 54 q 521 160 524 117 q 445 34 497 76 q 304 -8 393 -8 q 191 16 239 -8 q 111 85 143 40 q 64 194 79 131 q 49 336 49 258 q 73 483 49 415 q 141 599 97 550 q 246 675 185 647 q 381 703 307 703 q 467 697 422 703 q 551 683 513 690 q 617 670 590 676 q 649 663 644 664 l 649 335 m 331 103 q 394 126 365 103 q 445 188 424 150 q 478 276 467 226 q 490 376 490 325 l 490 576 q 449 586 476 581 q 399 592 421 592 q 312 574 346 592 q 257 524 278 556 q 228 447 236 492 q 219 350 219 403 q 222 257 219 301 q 237 178 225 213 q 271 123 249 143 q 331 103 293 103 z "},"o":{"ha":718,"x_min":49,"x_max":669,"o":"m 365 708 q 597 614 525 708 q 669 354 669 519 q 650 209 669 276 q 591 92 631 142 q 492 15 551 43 q 353 -14 432 -14 q 216 10 274 -14 q 121 81 158 35 q 66 192 83 126 q 49 339 49 257 q 68 485 49 418 q 127 602 88 553 q 226 680 167 651 q 365 708 286 708 m 351 592 q 285 574 311 592 q 245 523 260 556 q 225 447 231 490 q 219 353 219 403 q 226 256 219 301 q 249 176 232 210 q 294 122 265 142 q 367 103 322 103 q 433 121 407 103 q 473 172 458 139 q 493 247 488 204 q 499 340 499 290 q 492 438 499 392 q 469 518 486 483 q 424 572 453 553 q 351 592 396 592 z "},"p":{"ha":751,"x_min":35,"x_max":701,"o":"m 103 -307 l 103 350 q 92 490 103 433 q 68 581 81 546 q 35 646 53 621 l 160 696 q 190 654 176 679 q 213 603 201 633 q 229 533 224 574 q 304 660 253 617 q 447 703 356 703 q 560 678 513 703 q 640 609 608 654 q 686 500 671 564 q 701 358 701 436 q 678 212 701 279 q 610 96 654 144 q 506 19 567 47 q 369 -8 444 -8 q 316 -6 343 -8 q 261 0 289 -3 l 261 -279 l 103 -307 m 421 592 q 357 568 386 592 q 306 506 328 544 q 273 418 285 467 q 261 318 261 369 l 261 118 q 303 108 275 114 q 351 103 331 103 q 439 121 404 103 q 494 171 474 139 q 524 247 515 203 q 532 344 532 292 q 529 438 532 393 q 515 517 526 482 q 481 572 503 551 q 421 592 458 592 z "},"b":{"ha":739,"x_min":90,"x_max":690,"o":"m 90 979 l 249 1007 l 249 583 q 319 672 274 640 q 435 703 364 703 q 548 678 500 703 q 628 609 596 654 q 675 500 660 564 q 690 358 690 436 q 666 212 690 279 q 598 96 642 144 q 493 19 554 47 q 358 -8 432 -8 q 269 -2 317 -8 q 182 11 222 4 q 90 32 136 19 l 90 979 m 408 592 q 344 568 374 592 q 294 506 315 544 q 260 418 272 467 q 249 318 249 369 l 249 117 q 289 108 261 114 q 340 103 317 103 q 426 121 392 103 q 482 171 461 139 q 511 247 503 203 q 519 344 519 292 q 517 438 519 393 q 502 517 514 482 q 468 572 490 551 q 408 592 446 592 z "},"q":{"ha":739,"x_min":49,"x_max":649,"o":"m 649 -308 l 490 -279 l 490 86 q 417 15 463 39 q 304 -8 371 -8 q 191 16 239 -8 q 111 85 143 40 q 64 194 79 131 q 49 336 49 258 q 73 483 49 415 q 141 599 97 550 q 246 675 185 647 q 381 703 307 703 q 469 696 422 703 q 556 682 515 689 q 649 663 601 674 l 649 -308 m 331 104 q 393 127 364 104 q 444 188 422 150 q 478 276 465 226 q 490 376 490 325 l 490 576 q 449 586 476 581 q 399 592 421 592 q 312 574 346 592 q 257 524 278 556 q 228 447 236 492 q 219 350 219 403 q 222 257 219 301 q 237 178 225 213 q 271 124 249 144 q 331 104 293 104 z "},"u":{"ha":763,"x_min":83,"x_max":726,"o":"m 501 692 l 660 692 l 660 335 q 670 195 660 251 q 693 104 681 139 q 726 39 708 63 l 603 -11 q 572 28 586 4 q 549 76 561 47 q 533 143 538 104 q 428 26 496 61 q 286 -8 360 -8 q 130 56 176 -8 q 83 231 83 119 l 83 692 l 242 692 l 242 233 q 263 142 242 175 q 333 108 283 108 q 394 126 364 108 q 448 175 424 143 q 487 252 472 207 q 501 353 501 297 l 501 692 z "},"h":{"ha":750,"x_min":90,"x_max":667,"o":"m 249 603 q 345 679 289 656 q 464 703 401 703 q 619 638 571 703 q 667 464 667 574 l 667 0 l 508 0 l 508 453 q 488 545 508 511 q 417 579 467 579 q 358 564 388 579 q 303 520 328 549 q 264 453 279 492 q 249 367 249 414 l 249 0 l 90 0 l 90 979 l 249 1007 l 249 603 z "},"m":{"ha":1124,"x_min":35,"x_max":1040,"o":"m 883 0 l 883 453 q 865 545 883 511 q 803 579 847 579 q 749 565 776 579 q 700 522 722 550 q 664 456 678 494 q 650 369 650 417 l 650 0 l 493 0 l 493 453 q 475 545 493 511 q 413 579 457 579 q 358 563 385 579 q 309 517 331 547 q 274 442 288 486 q 261 344 261 399 l 261 0 l 103 0 l 103 350 q 92 490 103 433 q 68 581 81 546 q 35 646 53 621 l 160 696 q 188 658 174 681 q 210 610 199 639 q 228 546 221 582 q 326 666 263 629 q 460 703 389 703 q 570 667 531 703 q 629 574 610 631 q 726 673 667 643 q 850 703 785 703 q 941 685 904 703 q 999 637 978 668 q 1031 562 1021 606 q 1040 464 1040 518 l 1040 0 l 883 0 z "},"i":{"ha":356,"x_min":69,"x_max":335,"o":"m 236 -6 q 124 38 163 -6 q 85 151 85 82 l 85 692 l 243 692 l 243 165 q 253 122 243 133 q 282 111 263 111 q 294 111 288 111 q 306 113 300 111 q 318 114 311 113 l 335 14 q 310 4 325 8 q 278 -3 297 0 q 236 -6 260 -6 m 167 1000 q 235 974 211 1000 q 258 906 258 947 q 234 836 258 864 q 163 808 210 808 q 94 835 118 808 q 69 901 69 863 q 94 972 69 944 q 167 1000 118 1000 z "},"s":{"ha":572,"x_min":33,"x_max":522,"o":"m 294 708 q 374 700 335 708 q 443 681 413 692 q 510 654 479 668 l 463 546 q 407 568 435 558 q 355 584 383 576 q 299 592 326 592 q 244 576 267 592 q 221 531 221 561 q 336 407 221 451 q 414 372 379 390 q 473 328 449 353 q 510 270 497 303 q 522 193 522 238 q 506 117 522 154 q 459 50 490 79 q 383 3 428 21 q 281 -14 338 -14 q 190 -3 235 -14 q 110 19 146 7 q 54 43 75 32 l 33 53 l 85 169 l 103 160 q 149 136 121 149 q 208 113 176 124 q 267 103 240 103 q 339 122 315 103 q 363 174 363 142 q 337 240 363 210 q 260 289 311 269 q 106 381 153 329 q 60 514 60 432 q 78 588 60 553 q 127 651 96 624 q 201 693 158 678 q 294 708 244 708 z "},"j":{"ha":339,"x_min":-54,"x_max":264,"o":"m 90 692 l 249 692 l 249 33 q 226 -106 249 -50 q 170 -199 204 -161 q 94 -263 136 -237 q 10 -310 51 -289 l -54 -204 q 26 -148 -3 -178 q 69 -88 56 -118 q 87 -31 83 -58 q 90 18 90 -3 l 90 692 m 171 1000 q 240 974 215 1000 q 264 906 264 947 q 240 836 264 864 q 167 808 215 808 q 99 835 122 808 q 75 901 75 863 q 99 972 75 944 q 171 1000 124 1000 z "},"l":{"ha":404,"x_min":83,"x_max":383,"o":"m 238 -6 q 121 38 158 -6 q 83 150 83 82 l 83 979 l 242 1008 l 242 165 q 254 121 242 133 q 290 108 267 108 q 317 110 304 108 q 342 114 331 111 q 364 119 354 117 l 383 19 q 343 7 365 13 q 297 -2 324 1 q 238 -6 271 -6 z "},"f":{"ha":489,"x_min":0,"x_max":524,"o":"m 456 854 q 430 869 451 858 q 389 881 408 881 q 358 877 376 881 q 324 862 340 874 q 295 828 307 850 q 283 769 283 806 q 285 735 283 754 q 294 692 288 715 l 467 692 l 447 579 l 303 579 l 303 35 q 281 -105 303 -49 q 225 -199 260 -161 q 148 -263 190 -237 q 64 -310 106 -289 l 0 -204 q 81 -148 51 -178 q 124 -88 110 -118 q 142 -31 139 -58 q 144 19 144 -3 l 144 579 l 19 579 l 19 692 l 140 692 q 133 735 135 713 q 131 776 131 757 q 151 875 131 832 q 205 946 171 918 q 284 988 239 974 q 378 1003 329 1003 q 467 985 432 1003 q 524 944 501 968 l 456 854 z "},"c":{"ha":569,"x_min":49,"x_max":554,"o":"m 465 529 q 423 569 444 553 q 365 586 401 586 q 319 580 344 586 q 271 549 293 574 q 234 478 249 525 q 219 350 219 431 q 234 220 219 268 q 272 146 249 172 q 321 112 294 119 q 372 104 347 104 q 413 108 392 104 q 453 116 433 111 q 487 125 472 121 q 508 132 501 129 l 547 32 q 528 24 543 31 q 489 10 514 17 q 429 -3 464 3 q 351 -10 394 -10 q 214 15 271 -10 q 120 83 157 39 q 66 190 83 128 q 49 329 49 253 q 73 492 49 421 q 140 610 97 563 q 242 683 183 658 q 367 708 300 708 q 477 683 432 708 q 554 614 522 658 l 465 529 z "},"r":{"ha":513,"x_min":35,"x_max":514,"o":"m 400 547 q 350 535 375 547 q 306 501 325 522 q 274 449 286 479 q 261 381 261 418 l 261 0 l 103 0 l 103 350 q 92 490 103 433 q 68 581 81 546 q 35 646 53 621 l 160 696 q 186 658 172 681 q 208 613 197 639 q 226 550 219 586 q 307 666 254 631 q 426 701 360 701 q 486 694 458 701 q 513 686 514 686 l 468 532 q 452 540 469 532 q 400 547 435 547 z "},"t":{"ha":501,"x_min":14,"x_max":494,"o":"m 14 692 l 139 692 l 167 854 l 297 883 l 297 692 l 468 692 l 449 579 l 297 579 l 297 168 q 317 122 297 132 q 360 111 336 111 q 399 114 379 111 q 433 121 418 117 q 468 131 451 125 l 494 26 l 482 22 q 445 10 469 17 q 388 -1 421 4 q 317 -6 356 -6 q 245 3 278 -6 q 189 30 213 11 q 152 78 165 49 q 139 150 139 107 l 139 579 l 14 579 l 14 692 z "},"v":{"ha":728,"x_min":83,"x_max":665,"o":"m 651 692 l 654 681 q 658 648 656 668 q 663 602 661 628 q 665 550 665 576 q 642 290 665 396 q 573 117 619 183 q 455 22 526 51 q 286 -7 383 -7 q 130 56 176 -7 q 83 231 83 119 l 83 692 l 242 692 l 242 235 q 263 140 242 176 q 333 104 283 104 q 417 142 383 104 q 469 240 450 179 q 497 377 489 300 q 506 533 506 454 q 503 591 506 563 q 498 642 501 619 q 493 678 494 664 l 490 692 l 651 692 z "},"w":{"ha":1071,"x_min":83,"x_max":1008,"o":"m 994 692 l 997 681 q 1001 649 999 668 q 1006 603 1004 629 q 1008 550 1008 576 q 991 289 1008 396 q 934 116 974 182 q 829 20 894 50 q 668 -10 764 -10 q 483 101 533 -10 q 415 17 458 44 q 286 -10 371 -10 q 131 53 178 -10 q 83 226 83 115 l 83 692 l 242 692 l 242 239 q 263 142 242 181 q 333 104 283 104 q 432 167 397 104 q 467 374 467 229 l 467 692 l 624 692 q 622 499 622 588 q 622 421 622 460 q 621 347 621 382 q 621 284 621 313 q 621 239 621 256 q 643 142 621 181 q 715 104 665 104 q 791 142 764 104 q 831 240 818 179 q 846 377 843 300 q 849 533 849 454 q 847 594 849 565 q 841 644 844 622 q 836 679 838 667 l 833 692 l 994 692 z "},"y":{"ha":747,"x_min":83,"x_max":697,"o":"m 656 281 q 662 204 656 239 q 676 135 668 169 q 690 67 683 101 q 697 -10 697 32 q 622 -229 697 -157 q 419 -301 547 -301 q 336 -294 378 -301 q 259 -276 294 -286 q 199 -257 224 -267 q 165 -243 174 -247 l 204 -122 q 248 -140 224 -131 q 298 -157 272 -149 q 351 -171 324 -165 q 406 -176 379 -176 q 518 -130 483 -176 q 553 -10 553 -83 q 525 128 553 57 q 422 23 486 54 q 286 -8 357 -8 q 130 56 176 -8 q 83 231 83 119 l 83 692 l 242 692 l 242 235 q 263 143 242 176 q 333 110 283 110 q 390 125 360 110 q 444 167 419 140 q 484 233 468 194 q 500 315 500 271 l 500 692 l 663 692 l 656 281 z "},"x":{"ha":667,"x_min":-7,"x_max":667,"o":"m -7 0 l 225 367 l 22 692 l 206 692 l 293 549 q 315 506 301 535 q 343 447 329 476 q 376 497 360 472 q 404 546 392 522 q 452 650 438 607 q 467 692 467 693 l 631 692 q 614 646 631 693 q 556 521 597 599 q 501 438 532 479 q 442 365 471 397 l 667 0 l 486 0 l 383 179 l 329 281 l 275 178 l 171 0 l -7 0 z "},"z":{"ha":581,"x_min":42,"x_max":546,"o":"m 42 0 l 42 94 l 349 581 q 208 576 278 576 l 72 576 l 53 692 l 533 692 l 533 597 l 231 111 q 356 115 293 115 l 546 115 l 546 0 l 42 0 z "},".":{"ha":374,"x_min":83,"x_max":289,"o":"m 189 194 q 263 165 238 194 q 289 90 289 136 q 263 15 289 46 q 185 -15 236 -15 q 110 15 136 -15 q 83 88 83 46 q 110 163 83 132 q 189 194 136 194 z "},",":{"ha":389,"x_min":56,"x_max":306,"o":"m 121 171 q 143 184 122 172 q 213 196 164 196 q 283 167 261 196 q 306 93 306 138 q 290 -10 306 36 q 247 -93 274 -56 q 187 -158 221 -131 q 115 -204 153 -186 l 56 -124 q 128 -43 110 -83 q 147 35 147 -3 q 135 110 147 75 q 121 171 122 144 z "},":":{"ha":401,"x_min":126,"x_max":332,"o":"m 231 194 q 306 165 279 194 q 332 90 332 136 q 306 15 332 46 q 226 -15 279 -15 q 152 15 178 -15 q 126 88 126 46 q 153 163 126 132 q 231 194 179 194 m 231 708 q 306 679 279 708 q 332 604 332 650 q 306 529 332 560 q 226 499 279 499 q 152 529 178 499 q 126 600 126 560 q 153 677 126 646 q 231 708 179 708 z "},";":{"ha":401,"x_min":83,"x_max":333,"o":"m 231 708 q 305 679 279 708 q 331 604 331 650 q 304 529 331 560 q 226 499 278 499 q 151 529 178 499 q 125 600 125 560 q 151 677 125 646 q 231 708 178 708 m 149 171 q 170 184 150 172 q 239 196 190 196 q 310 167 288 196 q 333 93 333 138 q 317 -10 333 36 q 274 -93 301 -56 q 213 -158 247 -131 q 142 -204 179 -186 l 83 -124 q 156 -43 138 -83 q 175 35 175 -3 q 163 110 175 75 q 149 171 150 144 z "},"G":{"ha":840,"x_min":60,"x_max":771,"o":"m 460 -200 q 556 -133 522 -169 q 605 -58 589 -96 q 623 19 621 -19 q 625 90 625 57 l 625 110 q 532 20 593 51 q 390 -11 471 -11 q 240 22 303 -11 q 138 117 178 56 q 78 265 97 179 q 60 457 60 351 q 85 656 60 565 q 160 813 110 747 q 288 916 211 879 q 471 953 365 953 q 627 922 564 953 q 726 854 690 892 l 646 749 q 558 805 610 785 q 451 825 506 825 q 351 797 392 825 q 286 722 311 769 q 250 609 261 674 q 239 471 239 544 q 249 327 239 392 q 281 216 260 263 q 338 144 303 169 q 422 118 372 118 q 488 133 454 118 q 548 174 521 147 q 592 240 575 201 q 608 329 608 279 l 608 456 l 771 456 l 771 38 q 748 -104 771 -47 q 690 -199 725 -161 q 610 -263 654 -237 q 524 -310 567 -289 l 460 -200 z "},"O":{"ha":928,"x_min":63,"x_max":865,"o":"m 474 953 q 651 919 578 953 q 773 825 725 886 q 843 676 821 764 q 865 478 865 588 q 841 280 865 369 q 766 126 817 190 q 638 27 715 63 q 456 -8 561 -8 q 277 23 351 -8 q 155 115 203 54 q 85 261 107 175 q 63 458 63 347 q 87 658 63 567 q 162 815 111 749 q 290 917 213 881 q 474 953 368 953 m 454 825 q 353 798 393 825 q 288 724 313 771 q 252 613 263 676 q 242 474 242 549 q 251 339 242 403 q 287 226 261 275 q 358 149 313 178 q 475 119 403 119 q 576 146 535 119 q 642 218 617 172 q 677 327 667 264 q 688 464 688 390 q 678 600 688 535 q 642 715 668 665 q 572 795 617 765 q 454 825 526 825 z "},"C":{"ha":726,"x_min":65,"x_max":699,"o":"m 614 751 q 544 806 581 788 q 458 825 507 825 q 358 798 399 825 q 292 723 317 771 q 256 611 267 675 q 244 474 244 547 q 255 336 244 400 q 291 224 265 272 q 360 147 317 175 q 471 119 404 119 q 532 125 503 119 q 585 137 561 131 q 626 149 610 143 q 646 156 642 154 l 685 39 l 667 32 q 616 16 649 25 q 538 -1 583 7 q 439 -8 493 -8 q 159 110 253 -8 q 65 458 65 229 q 90 659 65 568 q 166 815 115 750 q 294 917 217 881 q 475 953 371 953 q 612 922 558 953 q 699 853 665 892 l 614 751 z "},"H":{"ha":913,"x_min":97,"x_max":815,"o":"m 650 428 l 263 428 l 263 0 l 97 0 l 97 940 l 263 940 l 263 549 l 650 549 l 650 940 l 815 940 l 815 0 l 650 0 l 650 428 z "},"I":{"ha":360,"x_min":97,"x_max":263,"o":"m 97 940 l 263 940 l 263 0 l 97 0 l 97 940 z "},"E":{"ha":713,"x_min":97,"x_max":676,"o":"m 97 940 l 656 940 l 656 815 l 263 815 l 263 553 l 586 553 l 565 426 l 263 426 l 263 125 l 676 125 l 676 0 l 97 0 l 97 940 z "},"F":{"ha":678,"x_min":97,"x_max":656,"o":"m 97 940 l 656 940 l 656 815 l 263 815 l 263 544 l 586 544 l 565 419 l 263 419 l 263 0 l 97 0 l 97 940 z "},"L":{"ha":614,"x_min":97,"x_max":614,"o":"m 97 940 l 263 940 l 263 125 l 614 125 l 614 0 l 97 0 l 97 940 z "},"K":{"ha":821,"x_min":97,"x_max":831,"o":"m 97 940 l 263 940 l 263 0 l 97 0 l 97 940 m 749 940 q 699 763 726 836 q 640 640 672 690 q 570 553 608 589 q 489 489 532 518 l 831 0 l 639 0 l 281 508 l 281 518 q 478 673 408 565 q 586 940 549 781 l 749 940 z "},"J":{"ha":360,"x_min":-49,"x_max":263,"o":"m 263 35 q 240 -105 263 -49 q 181 -200 217 -161 q 102 -264 146 -239 q 17 -310 58 -289 l -49 -200 q 35 -144 6 -174 q 79 -85 65 -114 q 95 -31 93 -57 q 97 18 97 -4 l 97 940 l 263 940 l 263 35 z "},"D":{"ha":893,"x_min":97,"x_max":833,"o":"m 97 940 q 139 941 107 940 q 211 942 171 942 q 294 942 251 942 q 369 943 338 943 q 719 826 606 943 q 833 476 833 708 q 717 121 833 244 q 351 -3 600 -3 q 267 -2 308 -3 q 192 -1 226 -1 q 133 -1 158 -1 q 97 0 108 0 l 97 940 m 350 819 q 297 819 318 819 q 263 818 275 818 l 263 122 q 302 121 278 121 q 372 121 326 121 q 586 206 518 121 q 654 461 654 292 q 638 608 654 542 q 585 721 622 674 q 491 794 549 768 q 350 819 433 819 z "},"Q":{"ha":933,"x_min":60,"x_max":911,"o":"m 911 -206 q 785 -271 853 -244 q 639 -297 717 -297 q 449 -249 549 -297 q 263 -104 350 -201 l 293 -12 q 326 -17 310 -15 q 357 -19 342 -19 q 488 13 426 -19 q 594 106 549 44 q 665 256 639 167 q 692 461 692 346 q 682 597 692 532 q 647 713 672 663 q 576 794 621 764 q 458 825 531 825 q 355 797 397 825 q 285 720 313 768 q 246 610 258 672 q 233 478 233 547 q 265 277 233 350 q 386 183 296 204 l 368 65 q 226 108 285 71 q 130 203 167 146 q 76 328 93 260 q 60 465 60 397 q 85 660 60 571 q 163 814 111 749 q 294 916 215 879 q 478 953 372 953 q 656 919 582 953 q 778 824 731 886 q 847 674 825 763 q 869 476 869 586 q 838 244 869 347 q 752 65 806 140 q 628 -56 699 -10 q 479 -115 557 -101 q 546 -149 511 -139 q 617 -160 581 -160 q 725 -142 667 -160 q 854 -89 783 -124 l 911 -206 z "},"T":{"ha":685,"x_min":14,"x_max":669,"o":"m 669 940 l 649 815 l 415 815 l 415 0 l 251 0 l 251 815 l 14 815 l 14 940 l 669 940 z "},"B":{"ha":785,"x_min":97,"x_max":735,"o":"m 97 940 q 142 941 107 940 q 219 942 176 942 q 306 942 263 942 q 376 943 349 943 q 622 879 538 943 q 706 699 706 815 q 668 576 706 631 q 564 489 631 522 q 691 399 647 457 q 735 264 735 340 q 644 72 735 144 q 371 -1 554 -1 q 290 -1 333 -1 q 208 -1 247 -1 q 140 0 169 0 q 97 0 110 0 l 97 940 m 263 118 l 382 118 q 517 160 476 118 q 558 267 558 203 q 549 324 558 296 q 518 374 540 351 q 459 409 496 396 q 367 422 422 422 q 308 422 333 422 q 263 421 282 422 l 263 118 m 263 540 l 369 540 q 494 581 457 540 q 532 679 532 621 q 524 732 532 706 q 495 779 515 758 q 441 813 475 800 q 356 825 407 825 q 302 825 325 825 q 263 824 279 825 l 263 540 z "},"R":{"ha":797,"x_min":97,"x_max":794,"o":"m 97 940 q 142 941 107 940 q 219 942 176 942 q 306 942 263 942 q 376 943 349 943 q 628 876 549 943 q 707 686 707 808 q 667 543 707 606 q 535 453 626 481 q 604 392 574 431 q 664 297 635 353 q 724 166 693 240 q 794 0 754 92 l 615 0 q 533 188 568 110 q 464 314 497 265 q 392 385 431 363 q 303 407 354 407 l 263 407 l 263 0 l 97 0 l 97 940 m 263 528 l 369 528 q 490 563 447 528 q 532 665 532 597 q 524 725 532 696 q 495 776 515 754 q 441 812 475 799 q 356 825 407 825 l 263 825 l 263 528 z "},"P":{"ha":743,"x_min":97,"x_max":707,"o":"m 97 940 q 142 941 107 940 q 219 942 176 942 q 306 942 263 942 q 376 943 349 943 q 626 867 546 943 q 707 660 707 792 q 685 542 707 596 q 619 450 663 489 q 510 390 575 411 q 360 368 446 368 l 263 368 l 263 0 l 97 0 l 97 940 m 263 492 l 369 492 q 494 538 457 492 q 532 654 532 583 q 524 717 532 686 q 495 772 515 747 q 441 810 475 796 q 356 825 407 825 q 302 825 325 825 q 263 824 279 825 l 263 492 z "},"U":{"ha":882,"x_min":83,"x_max":799,"o":"m 247 940 l 247 358 q 301 174 247 229 q 449 119 356 119 q 588 183 543 119 q 633 358 633 246 l 633 940 l 799 940 l 799 346 q 780 210 799 274 q 718 97 761 146 q 604 20 675 49 q 431 -8 533 -8 q 266 20 332 -8 q 159 97 200 49 q 101 210 118 146 q 83 346 83 274 l 83 940 l 247 940 z "},"A":{"ha":840,"x_min":-7,"x_max":847,"o":"m 354 940 l 485 940 l 847 0 l 671 0 l 585 246 l 246 246 l 157 0 l -7 0 l 354 940 m 542 368 q 465 595 497 493 q 417 756 433 697 q 365 592 397 693 q 290 368 333 490 l 542 368 z "},"V":{"ha":808,"x_min":-11,"x_max":821,"o":"m 469 0 l 340 0 l -11 940 l 165 940 l 282 604 q 358 374 326 474 q 407 222 390 275 q 453 372 422 275 q 532 601 485 468 l 653 940 l 821 940 l 469 0 z "},"W":{"ha":1207,"x_min":14,"x_max":1210,"o":"m 640 571 q 607 682 619 628 q 594 629 600 656 q 578 571 588 603 l 397 0 l 275 0 l 14 940 l 179 940 l 301 469 q 347 272 333 347 q 370 358 357 311 q 403 467 383 406 l 550 940 l 674 940 l 821 467 q 854 353 840 404 q 876 263 868 301 q 892 353 882 301 q 919 467 903 404 l 1042 940 l 1210 940 l 949 0 l 826 0 l 640 571 z "},"¨":{"ha":694,"x_min":122,"x_max":572,"o":"m 294 878 q 272 815 294 840 q 206 789 250 789 q 144 814 165 789 q 122 875 122 839 q 144 940 122 914 q 210 965 167 965 q 272 940 250 965 q 294 878 294 915 m 572 878 q 550 815 572 840 q 483 789 528 789 q 421 814 443 789 q 399 875 399 839 q 421 940 399 914 q 488 965 443 965 q 550 940 528 965 q 572 878 572 915 z "},"S":{"ha":704,"x_min":42,"x_max":656,"o":"m 368 953 q 461 944 417 953 q 542 923 506 935 q 605 899 579 911 q 640 879 631 886 l 572 760 l 554 769 q 507 792 536 779 q 443 814 478 804 q 376 824 408 824 q 290 800 326 824 q 253 726 253 776 q 293 624 253 664 q 419 551 333 585 q 519 505 475 529 q 593 449 563 481 q 640 375 624 417 q 656 275 656 333 q 635 171 656 222 q 576 80 615 119 q 478 16 536 40 q 343 -8 419 -8 q 240 3 289 -8 q 152 28 192 14 q 84 58 113 43 q 42 82 56 74 l 100 210 l 125 196 q 186 165 150 182 q 263 135 222 149 q 332 121 303 121 q 442 157 406 121 q 478 258 478 193 q 468 312 478 289 q 440 351 458 335 q 397 381 422 368 q 339 407 371 394 q 227 460 276 433 q 143 520 178 486 q 90 598 108 554 q 72 703 72 642 q 94 799 72 754 q 156 878 117 844 q 249 933 194 913 q 368 953 303 953 z "},"Z":{"ha":733,"x_min":56,"x_max":685,"o":"m 56 0 l 56 99 l 464 815 q 407 812 436 813 q 344 811 378 811 l 79 811 l 57 940 l 668 940 l 668 842 l 268 126 q 317 128 292 128 q 371 129 342 129 l 685 129 l 685 0 l 56 0 z "},"Y":{"ha":753,"x_min":0,"x_max":753,"o":"m 292 360 l 0 940 l 179 940 l 376 514 l 578 940 l 753 940 l 457 353 l 457 0 l 292 0 l 292 360 z "},"X":{"ha":808,"x_min":0,"x_max":808,"o":"m 0 0 l 292 493 l 28 940 l 215 940 l 347 703 q 374 653 358 683 q 404 592 389 624 q 435 653 419 624 q 463 701 451 682 l 596 940 l 782 940 l 517 492 l 808 0 l 619 0 l 464 278 q 436 328 453 297 q 404 392 419 360 l 346 278 l 190 0 l 0 0 z "},"M":{"ha":1126,"x_min":83,"x_max":1043,"o":"m 625 0 l 508 0 l 351 357 q 334 399 344 372 q 311 457 324 425 q 285 524 299 489 q 258 596 271 560 q 258 524 258 560 q 256 458 257 489 q 253 402 254 426 q 253 364 253 378 l 239 0 l 83 0 l 139 943 l 268 943 l 506 354 q 534 285 518 322 q 564 211 550 247 q 593 284 578 247 q 622 354 608 321 l 861 943 l 988 943 l 1043 0 l 889 0 l 874 360 q 870 459 872 394 q 867 590 868 524 q 841 521 854 556 q 817 456 828 486 q 796 400 806 425 q 781 361 786 375 l 625 0 z "},"N":{"ha":915,"x_min":97,"x_max":818,"o":"m 653 940 l 818 940 l 818 -1 l 681 -1 l 364 493 q 306 584 338 533 q 247 678 275 635 q 255 585 251 633 q 258 492 258 536 l 263 0 l 97 0 l 97 943 l 226 943 l 553 454 q 609 369 581 414 q 665 282 638 324 q 660 372 663 326 q 657 449 657 417 l 653 940 z "},"ß":{"ha":803,"x_min":-7,"x_max":760,"o":"m 290 35 q 269 -105 290 -49 q 213 -199 247 -161 q 136 -263 178 -237 q 53 -310 94 -289 l -7 -214 q 73 -156 44 -187 q 115 -92 101 -124 q 130 -31 128 -60 q 132 19 132 -1 l 132 664 q 152 803 132 740 q 213 912 172 867 q 315 982 254 957 q 457 1007 375 1007 q 567 990 521 1007 q 642 947 613 974 q 687 885 672 919 q 701 813 701 850 q 676 717 701 753 q 622 656 651 681 q 567 610 592 631 q 542 558 542 589 q 558 503 542 526 q 598 461 574 481 q 651 422 622 442 q 703 374 679 401 q 744 307 728 346 q 760 211 760 268 q 741 122 760 163 q 689 51 722 81 q 608 6 656 22 q 504 -10 561 -10 q 441 -3 471 -10 q 387 13 411 4 q 347 31 363 22 q 328 42 332 39 l 375 146 q 392 138 381 143 q 418 126 403 132 q 450 115 433 119 q 483 110 467 110 q 569 131 538 110 q 600 199 600 153 q 585 254 600 232 q 547 295 569 276 q 497 333 524 314 q 448 378 471 351 q 410 441 425 404 q 394 532 394 478 q 418 618 394 583 q 469 681 442 653 q 521 735 497 708 q 544 799 544 763 q 511 866 544 846 q 435 886 478 886 q 365 867 393 886 q 321 819 338 849 q 297 751 304 789 q 290 675 290 713 l 290 35 z "},"–":{"ha":694,"x_min":0,"x_max":694,"o":"m 0 501 l 694 501 l 694 386 l 0 386 l 0 501 z "},"­":{"ha":532,"x_min":69,"x_max":463,"o":"m 69 501 l 463 501 l 463 386 l 69 386 l 69 501 z "},"—":{"ha":969,"x_min":0,"x_max":969,"o":"m 0 501 l 969 501 l 969 386 l 0 386 l 0 501 z "},"-":{"ha":532,"x_min":69,"x_max":463,"o":"m 69 501 l 463 501 l 463 386 l 69 386 l 69 501 z "},"æ":{"ha":1056,"x_min":49,"x_max":1028,"o":"m 381 703 q 515 686 456 703 q 608 654 574 669 q 796 708 688 708 q 902 693 858 708 q 974 651 946 678 q 1015 589 1001 625 q 1028 511 1028 553 q 1000 416 1028 461 q 921 337 972 371 q 795 283 869 303 q 629 261 721 263 q 642 201 633 229 q 669 151 651 172 q 714 117 686 129 q 783 104 742 104 q 849 111 814 104 q 913 128 883 118 q 981 153 947 139 l 1022 54 q 944 22 986 36 q 861 0 908 10 q 761 -10 814 -10 q 603 24 665 -10 q 506 119 540 57 q 431 24 479 56 q 304 -8 382 -8 q 191 16 239 -8 q 111 85 143 40 q 64 194 79 131 q 49 336 49 258 q 73 483 49 415 q 141 599 97 550 q 246 675 185 647 q 381 703 307 703 m 331 103 q 414 139 378 103 q 469 233 450 175 q 464 279 465 256 q 463 329 463 303 q 477 458 463 400 q 519 560 492 515 q 465 583 494 574 q 399 592 435 592 q 312 574 346 592 q 257 524 278 556 q 228 447 236 492 q 219 350 219 403 q 222 257 219 301 q 237 178 225 213 q 271 123 249 143 q 331 103 293 103 m 785 600 q 708 578 739 600 q 660 523 678 557 q 634 447 642 489 q 625 361 626 404 q 738 378 692 364 q 814 415 785 393 q 856 461 843 436 q 869 511 869 486 q 846 576 869 551 q 785 600 822 600 z "},"œ":{"ha":1111,"x_min":49,"x_max":1068,"o":"m 365 708 q 501 678 444 708 q 594 600 558 649 q 701 681 639 653 q 838 708 763 708 q 942 693 899 708 q 1014 651 986 678 q 1055 589 1042 625 q 1068 511 1068 553 q 1040 416 1068 461 q 961 337 1013 371 q 835 283 910 303 q 669 261 761 263 q 683 201 674 229 q 709 151 692 172 q 754 117 726 129 q 824 104 782 104 q 889 111 854 104 q 953 128 924 118 q 1021 153 988 139 l 1063 54 q 985 22 1026 36 q 902 0 949 10 q 803 -10 856 -10 q 667 17 722 -10 q 575 89 611 43 q 481 14 536 42 q 353 -14 426 -14 q 216 10 274 -14 q 121 81 158 35 q 66 192 83 126 q 49 339 49 257 q 68 485 49 418 q 127 602 88 553 q 226 680 167 651 q 365 708 286 708 m 351 592 q 285 574 311 592 q 245 523 260 556 q 225 447 231 490 q 219 353 219 403 q 226 256 219 301 q 249 176 232 210 q 294 122 265 142 q 367 103 322 103 q 433 121 407 103 q 473 172 458 139 q 493 247 488 204 q 499 340 499 290 q 492 438 499 392 q 469 518 486 483 q 424 572 453 553 q 351 592 396 592 m 825 600 q 749 578 779 600 q 701 523 719 557 q 676 447 683 489 q 667 361 668 404 q 780 378 733 364 q 856 415 826 393 q 898 461 885 436 q 911 511 911 486 q 887 576 911 551 q 825 600 863 600 z "},"Œ":{"ha":1186,"x_min":63,"x_max":1151,"o":"m 571 0 q 510 -6 540 -3 q 456 -8 481 -8 q 277 23 351 -8 q 155 115 203 54 q 85 261 107 175 q 63 458 63 347 q 87 658 63 567 q 162 815 111 749 q 290 917 213 881 q 474 953 368 953 q 540 949 511 953 q 588 940 568 946 l 1131 940 l 1131 815 l 736 815 l 736 553 l 1061 553 l 1040 426 l 736 426 l 736 125 l 1151 125 l 1151 0 l 571 0 m 475 119 q 520 122 494 119 q 572 128 546 125 l 572 807 q 524 819 553 814 q 454 825 494 825 q 353 798 393 825 q 288 724 313 771 q 252 613 263 676 q 242 474 242 549 q 251 339 242 403 q 287 226 261 275 q 358 149 313 178 q 475 119 403 119 z "},"Æ":{"ha":1217,"x_min":-7,"x_max":1181,"o":"m 604 246 l 325 246 l 185 0 l -7 0 l 563 940 l 1160 940 l 1160 815 l 767 815 l 767 553 l 1090 553 l 1069 426 l 767 426 l 767 125 l 1181 125 l 1181 0 l 604 0 l 604 246 m 604 771 q 572 708 596 753 q 519 605 549 663 q 456 484 489 547 q 394 368 422 421 l 604 368 l 604 771 z "},"ª":{"ha":556,"x_min":49,"x_max":514,"o":"m 468 701 q 475 608 468 647 q 490 546 482 569 q 514 500 500 518 l 422 464 q 401 486 411 472 q 384 513 393 497 q 368 550 375 529 q 232 465 332 465 q 93 531 138 465 q 49 704 49 596 q 65 804 49 758 q 113 883 82 850 q 185 934 143 915 q 279 953 228 953 q 340 949 307 953 q 402 940 374 944 q 450 931 431 935 l 468 926 l 468 701 m 247 554 q 285 571 268 554 q 316 615 303 588 q 337 676 329 642 q 344 749 344 711 l 344 858 q 317 864 332 861 q 292 867 303 867 q 206 823 228 867 q 183 713 183 779 q 185 655 183 683 q 194 604 188 626 q 213 568 200 582 q 247 554 225 554 z "},"²":{"ha":440,"x_min":49,"x_max":383,"o":"m 49 899 q 131 937 89 921 q 221 953 172 953 q 333 922 292 953 q 374 822 374 890 q 340 718 374 768 q 251 610 307 668 q 194 564 232 590 l 383 564 l 383 467 l 50 467 l 50 565 q 83 592 67 576 q 117 622 99 604 q 153 658 135 639 q 226 746 204 714 q 249 810 249 778 q 210 858 249 858 q 171 851 190 858 q 135 836 151 844 q 107 820 118 828 q 93 811 96 813 l 49 899 z "},"³":{"ha":456,"x_min":49,"x_max":392,"o":"m 226 953 q 334 921 297 953 q 371 838 371 889 q 351 774 371 797 q 310 736 331 750 q 371 689 350 719 q 392 619 392 658 q 383 560 392 589 q 352 508 374 531 q 295 471 331 485 q 208 457 260 457 q 130 470 172 457 q 49 504 88 483 l 85 589 q 124 569 104 578 q 161 557 140 563 q 204 551 182 551 q 250 567 229 551 q 271 618 271 583 q 258 660 271 643 q 221 678 246 678 q 190 676 203 678 q 167 674 176 675 q 146 669 156 671 l 117 742 q 159 752 136 747 q 202 765 182 757 q 235 786 222 774 q 249 821 249 799 q 239 847 249 836 q 214 858 229 858 q 169 851 194 858 q 101 824 144 843 l 60 911 q 142 942 104 931 q 226 953 179 953 z "},"¹":{"ha":369,"x_min":14,"x_max":271,"o":"m 271 940 l 271 467 l 157 467 l 157 817 q 63 751 113 774 l 14 839 l 32 846 q 75 865 49 851 q 132 897 101 878 q 189 940 163 915 l 271 940 z "},"º":{"ha":568,"x_min":63,"x_max":506,"o":"m 289 953 q 454 888 403 953 q 506 711 506 824 q 492 613 506 658 q 450 533 478 567 q 380 481 422 500 q 281 461 338 461 q 114 525 165 461 q 63 700 63 589 q 76 801 63 754 q 118 881 90 847 q 189 933 146 914 q 289 953 232 953 m 279 860 q 213 817 229 860 q 197 710 197 775 q 201 649 197 678 q 215 600 204 621 q 243 567 225 579 q 290 554 261 554 q 355 597 339 554 q 371 704 371 639 q 367 765 371 736 q 353 814 364 793 q 325 847 343 835 q 279 860 307 860 z "},"¼":{"ha":988,"x_min":7,"x_max":967,"o":"m 572 815 l 701 815 l 322 0 l 192 0 l 572 815 m 264 814 l 264 340 l 150 340 l 150 690 q 56 625 106 647 l 7 713 l 25 719 q 68 738 42 725 q 125 770 94 751 q 182 814 156 789 l 264 814 m 899 215 l 967 215 l 953 129 l 899 129 l 899 0 l 783 0 l 783 129 l 565 129 l 565 183 l 690 486 l 804 486 l 689 215 l 783 215 l 783 343 l 899 371 l 899 215 z "},"/":{"ha":579,"x_min":-14,"x_max":593,"o":"m 428 1013 l 593 1013 l 151 -175 l -14 -175 l 428 1013 z "},"½":{"ha":1007,"x_min":7,"x_max":950,"o":"m 572 815 l 701 815 l 322 0 l 192 0 l 572 815 m 264 814 l 264 340 l 150 340 l 150 690 q 56 625 106 647 l 7 713 l 25 719 q 68 738 42 725 q 125 770 94 751 q 182 814 156 789 l 264 814 m 615 431 q 697 469 656 454 q 788 485 739 485 q 899 454 857 485 q 940 356 940 424 q 907 251 940 301 q 817 143 874 200 q 793 122 807 133 q 761 97 779 110 l 950 97 l 950 0 l 617 0 l 617 99 q 650 125 633 110 q 683 154 665 138 q 719 192 701 171 q 793 279 771 247 q 815 343 815 311 q 776 390 815 390 q 738 384 757 390 q 701 369 718 378 q 674 353 685 361 q 660 344 663 346 l 615 431 z "},"¾":{"ha":1093,"x_min":8,"x_max":1039,"o":"m 642 815 l 772 815 l 392 0 l 263 0 l 642 815 m 971 203 l 1039 203 l 1025 115 l 971 115 l 971 0 l 856 0 l 856 115 l 638 115 l 638 171 l 764 472 l 878 472 l 763 203 l 856 203 l 856 331 l 971 358 l 971 203 m 186 815 q 294 783 257 815 q 332 700 332 751 q 312 636 332 660 q 269 599 292 613 q 331 551 310 582 q 353 482 353 521 q 344 422 353 451 q 313 370 335 393 q 255 333 290 347 q 168 319 219 319 q 90 333 132 319 q 8 367 47 346 l 44 451 q 83 432 64 440 q 121 419 100 425 q 164 414 142 414 q 210 430 189 414 q 232 481 232 446 q 219 523 232 506 q 181 540 207 540 q 149 539 163 540 q 126 536 136 538 q 106 532 115 533 l 76 604 q 119 615 96 610 q 162 628 142 619 q 195 649 182 636 q 208 683 208 661 q 199 710 208 699 q 175 721 190 721 q 131 713 156 721 q 61 686 106 706 l 21 774 q 101 804 64 793 q 186 815 139 815 z "},"\\":{"ha":579,"x_min":-14,"x_max":593,"o":"m 593 -175 l 428 -175 l -14 1013 l 151 1013 l 593 -175 z "},"%":{"ha":1167,"x_min":56,"x_max":1110,"o":"m 268 821 q 425 756 376 821 q 474 579 474 692 q 460 481 474 526 q 421 401 447 435 q 354 349 394 368 q 260 329 314 329 q 104 394 153 329 q 56 569 56 458 q 69 669 56 624 q 108 749 82 715 q 174 802 135 783 q 268 821 214 821 m 260 722 q 205 681 218 722 q 192 578 192 640 q 194 519 192 546 q 206 472 197 492 q 229 440 214 451 q 268 428 244 428 q 324 469 311 428 q 338 572 338 510 q 335 631 338 603 q 324 678 332 658 q 300 710 315 699 q 260 722 285 722 m 710 815 l 840 815 l 460 0 l 329 0 l 710 815 m 906 488 q 1062 423 1014 488 q 1110 246 1110 358 q 1097 147 1110 193 q 1058 68 1083 101 q 992 15 1032 35 q 897 -4 951 -4 q 742 60 790 -4 q 693 236 693 125 q 706 336 693 290 q 745 416 719 382 q 811 469 771 450 q 906 488 851 488 m 897 389 q 842 348 856 389 q 829 244 829 307 q 832 185 829 213 q 843 138 835 158 q 867 106 851 118 q 906 94 882 94 q 962 135 949 94 q 975 239 975 176 q 972 297 975 269 q 961 345 969 325 q 938 377 953 365 q 897 389 922 389 z "},"ø":{"ha":718,"x_min":49,"x_max":669,"o":"m 365 708 q 464 697 417 708 l 499 768 l 606 719 l 568 643 q 645 524 621 597 q 669 354 669 451 q 650 209 669 276 q 591 92 631 142 q 492 15 551 43 q 353 -14 432 -14 q 254 -3 301 -14 l 219 -75 l 111 -26 l 149 51 q 73 169 97 96 q 49 339 49 242 q 68 485 49 418 q 127 602 88 553 q 226 680 167 651 q 365 708 286 708 m 351 592 q 285 574 311 592 q 245 523 260 556 q 225 447 231 490 q 219 353 219 403 q 222 283 219 317 q 232 222 225 250 l 407 581 q 351 592 382 592 m 499 340 q 485 472 499 417 l 311 113 q 367 103 332 103 q 433 121 407 103 q 473 172 458 139 q 493 247 488 204 q 499 340 499 290 z "},"@":{"ha":1242,"x_min":76,"x_max":1172,"o":"m 869 301 q 872 225 869 261 q 881 162 874 189 q 902 118 888 135 q 940 101 917 101 q 996 135 974 101 q 1031 213 1018 168 q 1050 304 1044 258 q 1056 374 1056 350 q 1024 540 1056 469 q 938 656 992 610 q 815 725 885 703 q 667 747 744 747 q 494 717 579 747 q 343 628 410 688 q 235 483 276 569 q 194 282 194 396 q 211 135 194 207 q 269 8 228 64 q 384 -83 311 -49 q 569 -117 457 -117 q 653 -109 611 -117 q 728 -92 694 -101 q 784 -74 763 -82 q 808 -64 806 -65 l 846 -160 q 821 -172 844 -161 q 759 -194 797 -182 q 672 -215 721 -206 q 571 -225 622 -225 q 389 -201 478 -225 q 231 -120 300 -178 q 119 34 161 -62 q 76 276 76 131 q 129 526 76 418 q 267 706 182 633 q 462 817 353 779 q 682 854 571 854 q 867 826 778 854 q 1023 739 956 797 q 1131 592 1090 681 q 1172 385 1172 504 q 1159 270 1172 338 q 1117 141 1146 203 q 1042 35 1088 79 q 929 -8 996 -8 q 810 37 851 -8 q 751 151 769 82 q 685 32 732 72 q 554 -8 638 -8 q 381 76 436 -8 q 325 303 325 161 q 347 434 325 374 q 408 538 368 494 q 502 607 447 582 q 624 632 557 632 q 704 626 661 632 q 783 614 747 621 q 869 596 826 606 l 869 301 m 578 96 q 633 115 607 96 q 680 167 660 135 q 711 242 700 200 q 722 329 722 283 l 722 515 q 685 524 711 518 q 639 529 658 529 q 567 513 597 529 q 518 469 538 497 q 490 401 499 440 q 481 315 481 363 q 484 231 481 271 q 498 162 488 192 q 528 114 508 132 q 578 96 547 96 z "},"©":{"ha":1086,"x_min":63,"x_max":1024,"o":"m 63 472 q 99 666 63 578 q 199 818 135 754 q 353 917 264 882 q 547 953 442 953 q 740 917 653 953 q 891 818 828 882 q 989 666 954 754 q 1024 472 1024 578 q 988 278 1024 367 q 887 126 951 190 q 733 27 822 63 q 538 -8 643 -8 q 344 27 432 -8 q 194 126 257 63 q 97 278 132 190 q 63 472 63 367 m 181 481 q 207 329 181 400 q 281 206 233 258 q 396 124 329 154 q 542 93 463 93 q 689 121 622 93 q 803 197 756 149 q 878 314 851 246 q 904 463 904 382 q 878 615 904 543 q 803 738 851 686 q 690 821 756 790 q 543 851 624 851 q 397 824 464 851 q 283 747 331 796 q 208 630 235 699 q 181 481 181 561 m 644 629 q 620 644 640 632 q 569 656 600 656 q 524 642 542 656 q 494 603 506 628 q 478 547 483 579 q 474 478 474 515 q 498 351 474 403 q 576 300 522 300 q 640 308 614 300 q 671 318 665 315 l 701 226 q 688 221 700 225 q 658 212 676 217 q 614 203 639 207 q 560 199 589 199 q 397 267 451 199 q 343 469 343 336 q 358 586 343 533 q 401 677 372 639 q 475 736 431 715 q 581 757 519 757 q 663 740 632 757 q 713 703 694 722 l 644 629 z "},"®":{"ha":811,"x_min":83,"x_max":728,"o":"m 83 631 q 108 760 83 701 q 175 863 132 819 q 278 929 218 906 q 408 953 338 953 q 538 929 479 953 q 639 863 597 906 q 704 760 681 819 q 728 631 728 701 q 703 501 728 560 q 635 399 679 442 q 533 332 592 356 q 403 308 474 308 q 273 332 332 308 q 172 399 214 356 q 107 501 131 442 q 83 631 83 560 m 174 635 q 191 538 174 583 q 238 460 208 493 q 310 407 268 426 q 403 388 353 388 q 497 405 454 388 q 569 453 539 422 q 617 528 600 485 q 635 624 635 571 q 618 720 635 675 q 571 799 601 765 q 497 851 540 832 q 403 871 454 871 q 310 853 353 871 q 238 805 268 836 q 191 730 208 774 q 174 635 174 686 m 394 807 q 492 781 461 807 q 522 708 522 756 q 508 662 522 682 q 468 626 493 642 q 506 588 490 619 q 549 479 521 556 l 479 454 q 451 524 463 496 q 429 569 440 553 q 405 593 418 586 q 371 601 392 600 l 364 601 l 364 451 l 290 451 l 290 806 q 307 806 294 806 q 336 806 319 806 q 369 807 353 807 q 394 807 385 807 m 364 763 l 364 644 q 378 645 367 644 q 396 647 389 646 q 437 665 428 654 q 446 703 446 676 q 433 744 446 725 q 385 763 421 763 l 364 763 z "},"&":{"ha":797,"x_min":49,"x_max":804,"o":"m 533 639 q 518 652 528 643 q 494 671 508 661 q 460 688 479 681 q 417 696 440 696 q 352 676 374 696 q 331 622 331 656 q 349 552 331 589 q 399 475 367 515 q 475 391 431 435 q 574 300 519 347 q 604 355 590 328 q 629 410 618 382 l 746 363 q 712 290 731 328 q 669 215 693 251 l 804 99 l 725 -7 l 583 108 q 461 24 531 57 q 300 -8 392 -8 q 208 8 253 -8 q 127 55 163 24 q 70 131 92 86 q 49 235 49 176 q 63 328 49 286 q 100 404 78 371 q 149 463 122 438 q 200 504 176 488 q 168 629 168 568 q 181 702 168 667 q 223 765 194 738 q 297 810 251 793 q 406 826 342 826 q 527 799 476 826 q 614 726 578 772 l 533 639 m 485 192 q 366 297 422 244 q 268 403 310 350 q 231 345 249 382 q 213 256 213 308 q 247 162 213 196 q 346 128 282 128 q 418 144 383 128 q 485 192 453 161 z "},"(":{"ha":532,"x_min":97,"x_max":476,"o":"m 97 374 q 128 614 97 508 q 206 799 160 719 q 302 930 251 878 q 390 1008 353 982 l 476 914 q 408 843 446 889 q 335 730 369 797 q 278 574 301 663 q 254 372 254 485 q 277 169 254 258 q 334 13 300 79 q 407 -100 368 -54 q 476 -171 446 -146 l 390 -265 q 302 -187 353 -239 q 206 -56 251 -135 q 128 131 160 24 q 97 374 97 238 z "},")":{"ha":532,"x_min":99,"x_max":476,"o":"m 476 374 q 445 131 476 238 q 368 -56 414 24 q 272 -187 322 -135 q 183 -265 221 -239 l 99 -171 q 168 -100 129 -146 q 241 13 207 -54 q 298 169 275 79 q 321 372 321 258 q 297 574 321 485 q 240 730 274 663 q 167 843 206 797 q 99 914 129 889 l 183 1008 q 272 930 221 982 q 368 799 322 878 q 445 614 414 719 q 476 374 476 508 z "},"+":{"ha":711,"x_min":83,"x_max":628,"o":"m 83 481 l 290 481 l 290 692 l 421 692 l 421 481 l 628 481 l 628 357 l 421 357 l 421 138 l 290 138 l 290 357 l 83 357 l 83 481 z "},"×":{"ha":717,"x_min":83,"x_max":633,"o":"m 178 688 l 356 507 l 538 690 l 628 597 l 447 417 l 633 232 l 549 144 l 363 332 l 174 144 l 83 236 l 271 422 l 93 600 l 178 688 z "},"=":{"ha":699,"x_min":97,"x_max":601,"o":"m 97 606 l 601 606 l 601 483 l 97 483 l 97 606 m 97 363 l 601 363 l 601 240 l 97 240 l 97 363 z "},"<":{"ha":632,"x_min":42,"x_max":576,"o":"m 521 125 l 42 360 l 42 474 l 513 703 l 568 574 l 299 453 q 255 433 278 442 q 214 417 232 424 q 255 401 232 410 q 300 381 278 392 l 576 254 l 521 125 z "},">":{"ha":632,"x_min":56,"x_max":590,"o":"m 56 254 l 332 381 q 376 400 353 390 q 418 417 399 410 q 376 433 399 424 q 333 453 354 442 l 64 574 l 119 703 l 590 474 l 590 360 l 111 125 l 56 254 z "},"|":{"ha":429,"x_min":139,"x_max":290,"o":"m 290 1013 l 290 -175 l 139 -175 l 139 1013 l 290 1013 z "},"ı":{"ha":340,"x_min":69,"x_max":319,"o":"m 221 -6 q 108 38 147 -6 q 69 151 69 82 l 69 692 l 228 692 l 228 165 q 238 122 228 133 q 267 111 247 111 q 278 111 272 111 q 290 113 285 111 q 303 114 296 113 l 319 14 q 294 4 310 8 q 263 -3 282 0 q 221 -6 244 -6 z "},"!":{"ha":443,"x_min":140,"x_max":353,"o":"m 244 194 q 319 165 293 194 q 346 90 346 136 q 319 15 346 46 q 240 -15 293 -15 q 166 15 192 -15 q 140 88 140 46 q 167 163 140 132 q 244 194 193 194 m 176 940 l 353 940 l 313 306 l 176 306 l 176 940 z "},"¡":{"ha":443,"x_min":92,"x_max":304,"o":"m 196 493 q 118 524 144 493 q 92 600 92 556 q 117 672 92 642 q 192 703 143 703 q 271 672 244 703 q 297 597 297 642 q 271 522 297 551 q 196 493 244 493 m 128 382 l 264 382 l 304 -253 l 128 -253 l 128 382 z "},"?":{"ha":601,"x_min":56,"x_max":568,"o":"m 304 954 q 497 906 426 954 q 568 746 568 857 q 556 669 568 706 q 523 598 543 632 q 477 531 503 564 q 426 468 451 499 q 356 372 388 419 q 310 274 325 325 l 193 306 q 224 438 193 378 q 292 547 254 497 q 360 641 329 597 q 390 726 390 685 q 361 806 390 778 q 283 833 332 833 q 242 829 261 833 q 204 818 224 825 q 163 800 185 811 q 110 775 140 789 l 56 885 q 173 933 113 911 q 304 954 233 954 m 260 194 q 335 165 308 194 q 361 90 361 136 q 335 15 361 46 q 256 -15 308 -15 q 181 15 207 -15 q 156 88 156 46 q 182 163 156 132 q 260 194 208 194 z "},"¿":{"ha":603,"x_min":33,"x_max":546,"o":"m 297 -267 q 104 -218 175 -267 q 33 -58 33 -169 q 46 19 33 -18 q 78 90 58 56 q 124 156 99 124 q 175 219 150 188 q 245 315 214 268 q 292 414 276 363 l 408 382 q 378 250 408 310 q 310 140 347 190 q 242 47 272 90 q 211 -39 211 3 q 240 -118 211 -90 q 318 -146 269 -146 q 359 -142 340 -146 q 397 -131 378 -137 q 439 -112 417 -124 q 492 -87 461 -101 l 546 -197 q 428 -245 489 -224 q 297 -267 368 -267 m 342 493 q 267 522 293 493 q 240 597 240 551 q 267 672 240 642 q 346 703 293 703 q 420 672 394 703 q 446 600 446 642 q 419 524 446 556 q 342 493 393 493 z "},"¦":{"ha":429,"x_min":139,"x_max":290,"o":"m 139 490 l 139 1013 l 290 1013 l 290 490 l 139 490 m 139 -175 l 139 344 l 290 344 l 290 -175 l 139 -175 z "},"˚":{"ha":694,"x_min":210,"x_max":486,"o":"m 210 1008 q 249 1108 210 1068 q 350 1147 289 1147 q 448 1108 410 1147 q 486 1008 486 1069 q 447 908 486 949 q 346 868 407 868 q 248 908 286 868 q 210 1008 210 949 m 288 1010 q 303 957 288 978 q 347 936 319 936 q 392 956 376 936 q 408 1008 408 975 q 392 1059 408 1040 q 347 1078 376 1078 q 288 1010 288 1078 z "},"Ø":{"ha":928,"x_min":63,"x_max":865,"o":"m 474 953 q 575 943 531 953 l 610 1031 l 746 975 l 710 886 q 828 724 790 828 q 865 478 865 619 q 841 280 865 369 q 766 126 817 190 q 638 27 715 63 q 456 -8 561 -8 q 351 0 399 -8 l 317 -87 l 182 -32 l 217 56 q 99 214 136 113 q 63 458 63 315 q 87 658 63 567 q 162 815 111 749 q 290 917 213 881 q 474 953 368 953 m 688 464 q 678 601 688 535 q 642 717 668 667 l 403 128 q 475 119 433 119 q 576 146 535 119 q 642 218 617 172 q 677 327 667 264 q 688 464 688 390 m 454 825 q 353 798 393 825 q 288 724 313 771 q 252 613 263 676 q 242 474 242 549 q 251 339 242 403 q 286 226 260 275 l 524 815 q 491 822 508 819 q 454 825 474 825 z "},"\"":{"ha":508,"x_min":69,"x_max":438,"o":"m 203 940 l 192 603 l 81 603 l 69 940 l 203 940 m 438 940 l 426 603 l 315 603 l 304 940 l 438 940 z "},"'":{"ha":272,"x_min":69,"x_max":203,"o":"m 203 940 l 192 603 l 81 603 l 69 940 l 203 940 z "},"*":{"ha":625,"x_min":69,"x_max":556,"o":"m 375 940 l 361 782 l 514 846 l 556 719 l 399 682 l 504 561 l 396 482 l 311 619 l 225 481 l 117 560 l 224 683 l 69 719 l 111 846 l 254 786 l 242 940 l 375 940 z "},"#":{"ha":856,"x_min":56,"x_max":786,"o":"m 674 824 l 649 633 l 786 633 l 772 525 l 635 525 l 607 307 l 754 307 l 740 199 l 593 199 l 568 0 l 458 0 l 483 199 l 311 199 l 286 0 l 176 0 l 201 199 l 56 199 l 69 307 l 215 307 l 243 525 l 88 525 l 101 633 l 257 633 l 282 824 l 392 824 l 367 633 l 539 633 l 564 824 l 674 824 m 325 307 l 497 307 l 525 525 l 353 525 l 325 307 z "},"$":{"ha":721,"x_min":69,"x_max":636,"o":"m 310 15 q 227 30 265 19 q 158 53 189 40 q 103 77 126 65 q 69 96 81 89 l 129 218 q 163 199 139 211 q 216 173 186 186 q 278 150 246 160 q 338 140 310 140 q 476 256 476 140 q 467 301 476 283 q 441 333 458 319 q 399 356 424 346 q 344 378 375 367 q 241 424 286 400 q 164 479 196 449 q 115 549 132 510 q 99 638 99 588 q 114 713 99 676 q 157 777 129 749 q 224 826 185 806 q 310 854 263 846 l 310 964 l 424 964 l 424 857 q 493 844 460 853 q 553 826 526 836 q 598 808 579 817 q 625 794 617 799 l 569 681 q 538 695 558 686 q 493 714 518 704 q 439 731 468 724 q 381 738 410 738 q 297 719 333 738 q 260 656 260 700 q 270 606 260 628 q 301 568 281 585 q 351 537 321 551 q 419 508 381 522 q 511 465 471 488 q 579 415 551 443 q 622 351 607 388 q 636 267 636 315 q 623 186 636 225 q 583 114 610 147 q 516 56 556 81 q 424 21 476 32 l 424 -115 l 310 -115 l 310 15 z "},"£":{"ha":782,"x_min":83,"x_max":711,"o":"m 186 474 l 196 596 q 223 714 200 661 q 285 804 246 767 q 376 863 324 842 q 493 883 428 883 q 577 876 540 883 q 640 860 614 869 q 684 839 667 850 q 711 821 701 828 l 644 700 l 635 708 q 605 727 624 717 q 560 746 586 738 q 503 754 535 754 q 454 747 478 754 q 412 724 431 740 q 379 678 393 707 q 361 606 365 650 l 347 474 l 600 474 l 581 349 l 333 349 l 328 294 q 304 191 321 232 q 269 122 288 150 q 372 131 321 131 q 451 126 413 131 q 529 122 489 122 q 573 126 550 122 q 615 138 596 131 q 660 154 638 144 l 707 38 l 693 31 q 653 15 678 24 q 596 -1 628 6 q 531 -8 564 -8 q 419 0 468 -8 q 324 8 371 8 q 249 7 283 8 q 188 3 214 6 q 132 -3 157 0 l 93 90 q 128 125 113 103 q 153 174 142 144 q 168 247 165 203 l 176 349 l 83 349 l 83 474 l 186 474 z "},"¤":{"ha":817,"x_min":42,"x_max":775,"o":"m 99 393 q 115 501 99 451 q 164 592 132 551 l 44 700 l 139 794 l 254 667 q 326 694 288 685 q 408 704 364 704 q 564 668 496 704 l 678 794 l 774 700 l 653 592 q 701 501 685 551 q 718 393 718 451 q 701 285 718 335 q 653 196 685 236 l 775 88 l 681 -7 l 564 121 q 490 93 529 103 q 406 83 450 83 q 251 119 319 83 l 136 -7 l 42 88 l 161 194 q 99 393 99 276 m 217 400 q 231 317 217 356 q 269 249 244 278 q 329 204 294 221 q 406 188 364 188 q 485 203 449 188 q 547 244 521 218 q 586 308 572 271 q 600 389 600 344 q 586 472 600 433 q 547 540 572 511 q 485 585 521 568 q 406 601 449 601 q 329 586 364 601 q 269 544 294 571 q 231 481 244 518 q 217 400 217 443 z "},"¥":{"ha":822,"x_min":42,"x_max":779,"o":"m 272 474 l 42 885 l 221 885 l 410 503 l 604 885 l 779 885 l 546 474 l 660 474 l 660 351 l 490 351 l 490 265 l 660 265 l 660 143 l 490 143 l 490 0 l 325 0 l 325 143 l 158 143 l 158 265 l 325 265 l 325 351 l 158 351 l 158 474 l 272 474 z "},"[":{"ha":513,"x_min":111,"x_max":428,"o":"m 428 1000 l 428 878 l 263 878 l 263 -136 l 428 -136 l 428 -258 l 111 -258 l 111 1000 l 428 1000 z "},"]":{"ha":513,"x_min":85,"x_max":401,"o":"m 401 -258 l 85 -258 l 85 -136 l 250 -136 l 250 878 l 85 878 l 85 1000 l 401 1000 l 401 -258 z "},"^":{"ha":751,"x_min":69,"x_max":682,"o":"m 533 421 l 411 689 l 376 774 q 360 732 369 754 q 340 689 350 710 l 213 411 l 69 438 l 318 940 l 433 940 l 682 438 l 533 421 z "},"_":{"ha":694,"x_min":0,"x_max":694,"o":"m 0 -111 l 694 -111 l 694 -226 l 0 -226 l 0 -111 z "},"¢":{"ha":636,"x_min":76,"x_max":588,"o":"m 336 -58 l 336 103 q 138 202 199 115 q 76 431 76 289 q 96 574 76 511 q 150 682 115 638 q 232 753 185 726 q 336 789 279 781 l 336 908 l 444 908 l 444 788 q 526 756 490 779 q 588 699 563 733 l 497 613 q 473 637 486 625 q 444 657 460 649 l 444 219 q 478 226 461 222 q 510 235 496 231 q 532 242 524 239 l 540 243 l 579 143 l 569 139 q 542 128 560 135 q 500 116 525 122 q 444 106 475 110 l 444 -58 l 336 -58 m 243 451 q 251 356 243 394 q 272 290 258 317 q 301 249 285 264 q 336 226 318 233 l 336 664 q 301 646 318 658 q 272 609 285 633 q 251 547 258 585 q 243 451 243 508 z "},"µ":{"ha":769,"x_min":90,"x_max":733,"o":"m 90 692 l 249 692 l 249 228 q 281 142 249 175 q 361 108 313 108 q 415 123 389 108 q 463 165 442 138 q 496 230 483 192 q 508 314 508 268 l 508 692 l 667 692 l 667 335 q 676 198 667 253 q 698 109 686 143 q 720 59 710 75 q 733 39 731 43 l 610 -11 q 577 27 597 0 q 543 119 557 54 q 361 -8 492 -8 q 249 25 297 -8 l 249 -279 l 90 -308 l 90 692 z "},"·":{"ha":346,"x_min":69,"x_max":275,"o":"m 175 546 q 249 517 224 546 q 275 442 275 488 q 249 367 275 397 q 171 336 222 336 q 96 367 122 336 q 69 439 69 397 q 96 515 69 483 q 175 546 122 546 z "},"{":{"ha":506,"x_min":83,"x_max":476,"o":"m 161 846 q 212 962 161 918 q 358 1006 263 1006 q 476 989 411 1006 l 446 872 q 412 882 426 879 q 385 885 397 885 q 353 878 365 885 q 333 863 340 872 q 322 842 325 853 q 319 824 319 832 q 328 699 319 761 q 338 583 338 638 q 333 524 338 553 q 317 469 329 496 q 283 416 306 442 q 222 368 260 390 q 283 321 260 346 q 317 269 306 296 q 333 213 329 242 q 338 156 338 185 q 328 40 338 101 q 319 -85 319 -22 q 322 -104 319 -93 q 333 -124 325 -115 q 353 -140 340 -133 q 385 -146 365 -146 q 412 -143 397 -146 q 446 -133 426 -140 l 476 -250 q 358 -267 411 -267 q 212 -223 263 -267 q 161 -107 161 -179 q 171 40 161 -32 q 181 175 181 113 q 156 265 181 229 q 83 313 132 301 l 83 426 q 156 474 132 438 q 181 564 181 510 q 171 699 181 626 q 161 846 161 771 z "},"}":{"ha":506,"x_min":28,"x_max":421,"o":"m 343 846 q 333 699 343 771 q 324 564 324 626 q 348 474 324 510 q 421 426 372 438 l 421 313 q 348 265 372 301 q 324 175 324 229 q 333 40 324 113 q 343 -107 343 -32 q 293 -223 343 -179 q 147 -267 243 -267 q 28 -250 94 -267 l 60 -133 q 121 -146 97 -146 q 153 -140 140 -146 q 173 -124 165 -133 q 183 -104 181 -115 q 186 -85 186 -93 q 177 40 186 -22 q 168 156 168 101 q 172 213 168 185 q 188 269 176 242 q 223 321 200 296 q 283 368 246 346 q 223 416 246 390 q 188 469 200 442 q 172 524 176 496 q 168 583 168 553 q 177 699 168 638 q 186 824 186 761 q 183 842 186 832 q 173 863 181 853 q 153 878 165 872 q 121 885 140 885 q 60 872 97 885 l 28 989 q 147 1006 94 1006 q 293 962 243 1006 q 343 846 343 918 z "},"§":{"ha":775,"x_min":69,"x_max":685,"o":"m 524 235 q 503 294 524 265 q 452 349 483 322 q 383 404 421 376 q 307 463 344 432 q 281 450 294 458 q 256 429 268 442 q 238 399 244 417 q 231 358 231 382 q 250 299 231 326 q 301 243 269 271 q 370 188 332 215 q 446 129 408 160 q 472 142 458 133 q 498 163 486 150 q 517 193 510 175 q 524 235 524 211 m 353 -300 q 288 -294 319 -300 q 233 -282 257 -289 q 194 -269 210 -275 q 178 -261 179 -262 l 226 -153 q 241 -159 229 -154 q 269 -169 253 -164 q 307 -179 286 -175 q 349 -183 328 -183 q 428 -110 428 -183 q 401 -40 428 -72 q 335 22 375 -8 q 249 82 296 51 q 164 150 203 113 q 97 234 124 188 q 69 340 69 281 q 85 420 69 386 q 123 479 100 454 q 172 520 146 504 q 221 546 199 536 q 181 613 196 578 q 167 688 167 647 q 183 768 167 731 q 231 833 200 806 q 304 877 261 861 q 401 893 347 893 q 517 876 471 893 q 576 854 563 860 l 528 746 q 483 765 517 753 q 406 776 450 776 q 347 758 368 776 q 326 703 326 740 q 347 642 326 669 q 398 588 367 614 q 468 536 429 563 q 544 481 507 510 q 598 435 572 458 q 643 383 624 411 q 674 322 663 354 q 685 251 685 290 q 669 172 685 206 q 631 113 654 138 q 582 72 608 88 q 533 46 556 56 q 572 -19 557 15 q 588 -94 588 -54 q 571 -175 588 -137 q 524 -240 554 -212 q 450 -284 493 -268 q 353 -300 407 -300 z "}," ":{"ha":354,"x_min":0,"x_max":0,"o":""},"•":{"ha":436,"x_min":69,"x_max":367,"o":"m 69 439 q 110 547 69 507 q 218 588 150 588 q 326 547 286 588 q 367 439 367 507 q 326 331 367 371 q 218 290 286 290 q 110 331 150 290 q 69 439 69 371 z "},"−":{"ha":636,"x_min":85,"x_max":553,"o":"m 85 481 l 553 481 l 553 357 l 85 357 l 85 481 z "},"±":{"ha":713,"x_min":83,"x_max":629,"o":"m 85 481 l 292 481 l 292 692 l 422 692 l 422 481 l 629 481 l 629 357 l 422 357 l 422 167 l 628 167 l 628 44 l 83 44 l 83 167 l 292 167 l 292 357 l 85 357 l 85 481 z "},"¬":{"ha":710,"x_min":69,"x_max":639,"o":"m 69 549 l 639 549 l 639 253 l 519 253 l 519 426 l 69 426 l 69 549 z "},"°":{"ha":431,"x_min":56,"x_max":375,"o":"m 56 839 q 101 956 56 910 q 217 1001 146 1001 q 331 956 288 1001 q 375 839 375 910 q 330 724 375 769 q 214 678 285 678 q 99 723 143 678 q 56 839 56 768 m 144 840 q 163 781 144 804 q 215 757 182 757 q 269 778 250 757 q 288 839 288 800 q 269 899 288 875 q 215 922 250 922 q 163 901 182 922 q 144 840 144 879 z "},"‘":{"ha":319,"x_min":28,"x_max":278,"o":"m 211 628 q 190 615 210 626 q 121 603 169 603 q 50 632 72 603 q 28 706 28 661 q 44 808 28 761 q 86 892 60 854 q 147 956 113 929 q 218 1003 181 983 l 278 922 q 203 842 222 882 q 185 764 185 801 q 197 689 185 724 q 211 628 210 654 z "},"’":{"ha":319,"x_min":42,"x_max":292,"o":"m 107 981 q 129 994 108 982 q 199 1006 150 1006 q 269 976 247 1006 q 292 903 292 947 q 276 800 292 846 q 233 717 260 754 q 173 651 207 679 q 101 606 139 624 l 42 686 q 115 767 96 726 q 133 844 133 807 q 121 919 133 885 q 107 981 108 954 z "},"‚":{"ha":319,"x_min":42,"x_max":292,"o":"m 107 171 q 129 184 108 172 q 199 196 150 196 q 269 167 247 196 q 292 93 292 138 q 276 -10 292 36 q 233 -93 260 -56 q 173 -158 207 -131 q 101 -204 139 -186 l 42 -124 q 115 -43 96 -83 q 133 35 133 -3 q 121 110 133 75 q 107 171 108 144 z "},"“":{"ha":597,"x_min":28,"x_max":554,"o":"m 211 628 q 190 615 210 626 q 121 603 169 603 q 50 632 72 603 q 28 706 28 661 q 44 808 28 761 q 86 892 60 854 q 147 956 113 929 q 218 1003 181 983 l 278 922 q 203 842 222 882 q 185 764 185 801 q 197 689 185 724 q 211 628 210 654 m 489 628 q 467 615 488 626 q 399 603 447 603 q 327 632 350 603 q 304 706 304 661 q 320 808 304 761 q 363 892 336 854 q 424 956 390 929 q 496 1003 458 983 l 554 922 q 481 842 500 882 q 463 764 463 801 q 475 689 463 724 q 489 628 488 654 z "},"”":{"ha":597,"x_min":42,"x_max":569,"o":"m 107 985 q 129 998 108 986 q 199 1010 150 1010 q 269 981 247 1010 q 292 907 292 951 q 276 804 292 850 q 233 721 260 758 q 173 656 207 683 q 101 610 139 628 l 42 690 q 115 771 96 731 q 133 849 133 811 q 121 924 133 889 q 107 985 108 958 m 385 985 q 406 998 386 986 q 475 1010 426 1010 q 547 981 524 1010 q 569 907 569 951 q 553 804 569 850 q 510 721 538 758 q 449 656 483 683 q 378 610 415 628 l 319 690 q 392 771 374 731 q 411 849 411 811 q 399 924 411 889 q 385 985 386 958 z "},"„":{"ha":597,"x_min":42,"x_max":569,"o":"m 107 171 q 129 184 108 172 q 199 196 150 196 q 269 167 247 196 q 292 93 292 138 q 276 -10 292 36 q 233 -93 260 -56 q 173 -158 207 -131 q 101 -204 139 -186 l 42 -124 q 115 -43 96 -83 q 133 35 133 -3 q 121 110 133 75 q 107 171 108 144 m 385 171 q 406 184 386 172 q 475 196 426 196 q 547 167 524 196 q 569 93 569 138 q 553 -10 569 36 q 510 -93 538 -56 q 449 -158 483 -131 q 378 -204 415 -186 l 319 -124 q 392 -43 374 -83 q 411 35 411 -3 q 399 110 411 75 q 385 171 386 144 z "},"÷":{"ha":710,"x_min":83,"x_max":626,"o":"m 435 646 q 413 585 435 610 q 350 560 392 560 q 290 584 311 560 q 269 642 269 608 q 291 704 269 679 q 354 729 313 729 q 414 706 393 729 q 435 646 435 682 m 83 481 l 626 481 l 626 357 l 83 357 l 83 481 m 435 189 q 413 128 435 153 q 350 103 392 103 q 290 127 311 103 q 269 185 269 151 q 291 247 269 222 q 354 272 313 272 q 414 249 393 272 q 435 189 435 225 z "},"«":{"ha":788,"x_min":69,"x_max":738,"o":"m 368 39 q 258 139 313 88 q 161 236 213 183 q 69 340 110 289 q 161 444 110 392 q 258 542 213 497 q 368 642 313 593 l 433 567 l 253 340 l 433 114 l 368 39 m 672 39 q 563 139 617 88 q 466 236 517 183 q 375 340 415 289 q 466 444 415 392 q 563 542 517 497 q 672 642 617 593 l 738 567 l 557 340 l 738 114 l 672 39 z "},"»":{"ha":788,"x_min":49,"x_max":717,"o":"m 419 642 q 528 542 474 593 q 625 444 574 497 q 717 340 676 392 q 625 236 676 289 q 528 139 574 183 q 419 39 474 88 l 354 114 l 535 340 l 354 567 l 419 642 m 115 642 q 224 542 169 593 q 321 444 269 497 q 413 340 372 392 q 321 236 372 289 q 224 139 269 183 q 115 39 169 88 l 49 114 l 229 340 l 49 567 l 115 642 z "},"‹":{"ha":482,"x_min":69,"x_max":433,"o":"m 433 567 l 253 340 l 433 114 l 368 39 q 258 139 313 88 q 161 236 213 183 q 69 340 110 289 q 161 444 110 392 q 258 542 213 497 q 368 642 313 593 l 433 567 z "},"›":{"ha":482,"x_min":49,"x_max":413,"o":"m 115 642 q 224 542 169 593 q 321 444 269 497 q 413 340 372 392 q 321 236 372 289 q 224 139 269 183 q 115 39 169 88 l 49 114 l 229 340 l 49 567 l 115 642 z "},"þ":{"ha":739,"x_min":90,"x_max":690,"o":"m 249 607 q 435 703 303 703 q 548 678 500 703 q 628 609 596 654 q 675 500 660 564 q 690 358 690 436 q 666 212 690 279 q 598 96 642 144 q 493 19 554 47 q 358 -8 432 -8 q 303 -6 331 -8 q 249 0 276 -3 l 249 -279 l 90 -307 l 90 979 l 249 1007 l 249 607 m 408 590 q 346 568 375 590 q 295 509 317 546 q 261 424 274 472 q 249 326 249 376 l 249 117 q 289 108 261 114 q 340 103 317 103 q 426 121 392 103 q 482 171 461 139 q 511 247 503 203 q 519 344 519 292 q 517 438 519 393 q 502 516 514 482 q 468 570 490 550 q 408 590 446 590 z "},"Ð":{"ha":893,"x_min":0,"x_max":833,"o":"m 97 421 l 0 421 l 0 543 l 97 543 l 97 940 q 139 941 107 940 q 211 942 171 942 q 294 942 251 942 q 369 943 338 943 q 719 826 606 943 q 833 476 833 708 q 717 121 833 244 q 351 -3 600 -3 q 267 -2 308 -3 q 192 -1 226 -1 q 133 -1 158 -1 q 97 0 108 0 l 97 421 m 350 819 q 297 819 318 819 q 263 818 275 818 l 263 543 l 513 543 l 513 421 l 263 421 l 263 122 q 302 121 278 121 q 372 121 326 121 q 586 206 518 121 q 654 461 654 292 q 638 608 654 542 q 585 721 622 674 q 491 794 549 768 q 350 819 433 819 z "},"¶":{"ha":803,"x_min":83,"x_max":704,"o":"m 403 368 q 163 446 243 368 q 83 657 83 524 q 165 867 83 792 q 403 943 246 943 l 403 368 m 704 35 q 681 -105 704 -49 q 623 -200 658 -161 q 544 -264 588 -239 q 458 -310 500 -289 l 394 -200 q 478 -144 449 -174 q 522 -86 508 -115 q 538 -31 536 -57 q 540 18 540 -4 l 540 940 l 704 940 l 704 35 z "},"Þ":{"ha":746,"x_min":97,"x_max":710,"o":"m 97 940 l 263 940 l 263 771 l 376 771 q 629 697 549 771 q 710 489 710 624 q 622 277 710 357 q 360 197 535 197 l 263 197 l 263 0 l 97 0 l 97 940 m 263 319 l 369 319 q 494 366 457 319 q 532 483 532 413 q 524 547 532 517 q 495 601 515 578 q 441 640 475 625 q 356 654 407 654 q 302 654 325 654 q 263 653 279 654 l 263 319 z "},"˜":{"ha":694,"x_min":131,"x_max":564,"o":"m 131 921 q 163 936 146 929 q 197 948 178 943 q 240 953 217 953 q 347 939 292 953 q 453 925 401 925 q 497 928 476 925 q 532 935 517 931 q 564 944 549 939 l 564 842 q 532 825 549 832 q 497 814 517 818 q 453 810 476 810 q 347 824 401 810 q 240 838 292 838 q 197 834 217 838 q 163 828 178 831 q 131 818 146 822 l 131 921 z "},"~":{"ha":717,"x_min":69,"x_max":647,"o":"m 242 542 q 312 528 282 542 q 367 500 342 515 q 417 472 392 485 q 474 458 442 458 q 510 462 494 458 q 538 474 525 465 q 562 494 550 482 q 589 522 574 506 l 647 458 q 604 400 629 425 q 550 360 582 378 q 474 343 518 343 q 404 356 433 343 q 350 385 375 369 q 299 413 325 400 q 242 426 274 426 q 206 423 221 426 q 179 411 192 419 q 155 391 167 403 q 128 363 143 379 l 69 428 q 111 485 86 460 q 165 524 132 506 q 242 542 197 542 z "},"´":{"ha":694,"x_min":247,"x_max":589,"o":"m 247 819 l 483 1082 l 589 983 q 499 889 547 932 q 411 814 451 846 q 315 747 364 778 l 247 819 z "},"`":{"ha":694,"x_min":93,"x_max":435,"o":"m 368 747 q 272 814 321 778 q 182 889 231 846 q 93 983 133 932 l 199 1082 l 435 819 l 368 747 z "},"ˆ":{"ha":694,"x_min":97,"x_max":618,"o":"m 97 822 l 358 1082 l 618 822 l 558 747 l 543 757 q 498 785 526 767 q 433 831 469 804 q 358 892 397 858 q 281 831 318 857 q 217 785 244 804 q 174 757 189 767 l 157 747 l 97 822 z "},"¯":{"ha":694,"x_min":125,"x_max":572,"o":"m 125 949 l 572 949 l 572 833 l 125 833 l 125 949 z "},"ʼ":{"ha":321,"x_min":42,"x_max":292,"o":"m 107 981 q 129 994 108 982 q 199 1006 150 1006 q 269 976 247 1006 q 292 903 292 947 q 276 800 292 846 q 233 717 260 754 q 173 651 207 679 q 101 606 139 624 l 42 686 q 115 767 96 726 q 133 844 133 807 q 121 919 133 885 q 107 981 108 954 z "},"€":{"ha":769,"x_min":49,"x_max":692,"o":"m 132 589 q 258 810 167 728 q 483 893 350 893 q 612 864 563 893 q 692 799 661 835 l 613 700 q 547 751 582 733 q 467 769 513 769 q 363 719 406 769 q 301 589 321 669 l 601 589 l 581 465 l 285 465 q 284 451 285 458 q 283 429 283 443 q 288 381 283 410 l 574 381 l 553 258 l 311 258 q 376 153 335 192 q 479 115 418 115 q 538 120 510 115 q 588 131 565 125 q 626 143 611 138 q 646 150 642 149 l 681 36 q 665 29 682 36 q 616 14 647 22 q 542 -1 585 6 q 450 -8 500 -8 q 251 59 335 -8 q 132 258 167 126 l 49 258 l 49 381 l 115 381 q 114 404 114 392 q 114 429 114 417 q 114 447 114 439 q 115 465 114 456 l 49 465 l 49 589 l 132 589 z "},"⁄":{"ha":456,"x_min":-28,"x_max":483,"o":"m 353 815 l 483 815 l 103 0 l -28 0 l 353 815 z "},"∕":{"ha":579,"x_min":-14,"x_max":593,"o":"m 428 1013 l 593 1013 l 151 -175 l -14 -175 l 428 1013 z "},"⁴":{"ha":457,"x_min":28,"x_max":429,"o":"m 361 669 l 429 669 l 415 583 l 361 583 l 361 467 l 246 467 l 246 583 l 28 583 l 28 638 l 153 940 l 268 940 l 151 669 l 246 669 l 246 797 l 361 825 l 361 669 z "},"ð":{"ha":718,"x_min":49,"x_max":683,"o":"m 669 347 q 650 203 669 269 q 591 88 631 136 q 492 13 551 40 q 353 -14 432 -14 q 216 12 274 -14 q 121 83 158 38 q 66 193 83 129 q 49 332 49 257 q 68 466 49 404 q 126 574 88 528 q 220 646 164 619 q 351 672 276 672 q 426 660 393 672 q 483 632 460 649 q 451 705 468 671 q 417 769 435 739 l 261 726 l 233 835 l 338 857 l 263 915 l 343 1013 q 486 893 421 964 l 656 938 l 683 831 l 553 803 q 640 593 611 708 q 669 347 669 478 m 351 563 q 285 546 311 563 q 245 500 260 529 q 225 431 231 471 q 219 344 219 390 q 226 253 219 297 q 249 176 232 210 q 294 123 265 143 q 367 103 322 103 q 433 122 407 103 q 473 172 458 140 q 493 246 488 204 q 499 333 499 288 q 492 422 499 381 q 469 495 486 464 q 424 544 453 526 q 351 563 396 563 z "},"¸":{"ha":694,"x_min":207,"x_max":490,"o":"m 381 4 l 365 -65 q 455 -97 419 -69 q 490 -175 490 -124 q 476 -237 490 -212 q 438 -277 461 -262 q 385 -297 414 -292 q 326 -303 356 -303 q 262 -296 293 -303 q 207 -279 231 -289 l 229 -204 q 269 -216 244 -210 q 318 -222 294 -222 q 372 -211 356 -222 q 388 -179 388 -200 q 375 -151 388 -162 q 344 -133 363 -140 q 303 -122 325 -125 q 260 -118 281 -118 l 290 4 l 381 4 z "},"â":{"ha":744,"x_min":49,"x_max":715,"o":"m 649 335 q 659 195 649 251 q 682 104 669 139 q 715 39 697 63 l 592 -11 q 558 32 574 7 q 535 85 546 54 q 521 160 524 117 q 445 34 497 76 q 304 -8 393 -8 q 191 16 239 -8 q 111 85 143 40 q 64 194 79 131 q 49 336 49 258 q 73 483 49 415 q 141 599 97 550 q 246 675 185 647 q 381 703 307 703 q 467 697 422 703 q 551 683 513 690 q 617 670 590 676 q 649 663 644 664 l 649 335 m 331 103 q 394 126 365 103 q 445 188 424 150 q 478 276 467 226 q 490 376 490 325 l 490 576 q 449 586 476 581 q 399 592 421 592 q 312 574 346 592 q 257 524 278 556 q 228 447 236 492 q 219 350 219 403 q 222 257 219 301 q 237 178 225 213 q 271 123 249 143 q 331 103 293 103 m 121 822 l 382 1082 l 642 822 l 582 747 l 567 757 q 522 785 550 767 q 457 831 493 804 q 382 892 421 858 q 305 831 342 857 q 240 785 268 804 q 197 757 213 767 l 181 747 l 121 822 z "},"ô":{"ha":718,"x_min":49,"x_max":669,"o":"m 365 708 q 597 614 525 708 q 669 354 669 519 q 650 209 669 276 q 591 92 631 142 q 492 15 551 43 q 353 -14 432 -14 q 216 10 274 -14 q 121 81 158 35 q 66 192 83 126 q 49 339 49 257 q 68 485 49 418 q 127 602 88 553 q 226 680 167 651 q 365 708 286 708 m 351 592 q 285 574 311 592 q 245 523 260 556 q 225 447 231 490 q 219 353 219 403 q 226 256 219 301 q 249 176 232 210 q 294 122 265 142 q 367 103 322 103 q 433 121 407 103 q 473 172 458 139 q 493 247 488 204 q 499 340 499 290 q 492 438 499 392 q 469 518 486 483 q 424 572 453 553 q 351 592 396 592 m 106 822 l 367 1082 l 626 822 l 567 747 l 551 757 q 506 785 535 767 q 442 831 478 804 q 367 892 406 858 q 290 831 326 857 q 225 785 253 804 q 182 757 197 767 l 165 747 l 106 822 z "},"ê":{"ha":657,"x_min":49,"x_max":626,"o":"m 49 329 q 74 493 49 422 q 145 612 100 564 q 251 684 190 660 q 383 708 313 708 q 490 693 446 708 q 561 651 533 678 q 602 589 589 625 q 615 511 615 553 q 588 416 615 461 q 508 337 560 371 q 382 283 456 303 q 217 261 308 263 q 230 201 221 229 q 256 151 239 172 q 301 117 274 129 q 371 104 329 104 q 436 111 401 104 q 500 128 471 118 q 568 153 535 139 l 610 54 q 532 22 574 36 q 449 0 496 10 q 349 -10 401 -10 q 211 15 268 -10 q 118 83 154 39 q 65 190 82 128 q 49 329 49 253 m 371 600 q 295 578 325 600 q 247 523 265 557 q 222 447 229 489 q 213 361 214 404 q 326 378 279 364 q 401 415 372 393 q 444 461 431 436 q 457 511 457 486 q 433 576 457 551 q 371 600 410 600 m 106 822 l 367 1082 l 626 822 l 567 747 l 551 757 q 506 785 535 767 q 442 831 478 804 q 367 892 406 858 q 290 831 326 857 q 225 785 253 804 q 182 757 197 767 l 165 747 l 106 822 z "},"û":{"ha":763,"x_min":83,"x_max":726,"o":"m 501 692 l 660 692 l 660 335 q 670 195 660 251 q 693 104 681 139 q 726 39 708 63 l 603 -11 q 572 28 586 4 q 549 76 561 47 q 533 143 538 104 q 428 26 496 61 q 286 -8 360 -8 q 130 56 176 -8 q 83 231 83 119 l 83 692 l 242 692 l 242 233 q 263 142 242 175 q 333 108 283 108 q 394 126 364 108 q 448 175 424 143 q 487 252 472 207 q 501 353 501 297 l 501 692 m 126 822 l 388 1082 l 647 822 l 588 747 l 572 757 q 527 785 556 767 q 463 831 499 804 q 388 892 426 858 q 310 831 347 857 q 246 785 274 804 q 203 757 218 767 l 186 747 l 126 822 z "},"î":{"ha":340,"x_min":-89,"x_max":385,"o":"m 221 -6 q 108 38 147 -6 q 69 151 69 82 l 69 692 l 228 692 l 228 165 q 238 122 228 133 q 267 111 247 111 q 278 111 272 111 q 290 113 285 111 q 303 114 296 113 l 319 14 q 294 4 310 8 q 263 -3 282 0 q 221 -6 244 -6 m 147 890 q 33 792 74 822 q -25 749 -7 763 l -89 818 l 147 1085 l 385 818 l 319 749 q 263 792 304 760 q 147 890 221 824 z "},"Â":{"ha":840,"x_min":-7,"x_max":847,"o":"m 354 940 l 485 940 l 847 0 l 671 0 l 585 246 l 246 246 l 157 0 l -7 0 l 354 940 m 542 368 q 465 595 497 493 q 417 756 433 697 q 365 592 397 693 q 290 368 333 490 l 542 368 m 142 1071 l 417 1289 l 692 1071 l 631 997 l 614 1006 q 565 1028 596 1013 q 497 1068 535 1044 q 417 1122 458 1092 q 336 1068 375 1092 q 267 1028 297 1044 q 221 1006 238 1013 l 203 997 l 142 1071 z "},"Ô":{"ha":928,"x_min":63,"x_max":865,"o":"m 474 953 q 651 919 578 953 q 773 825 725 886 q 843 676 821 764 q 865 478 865 588 q 841 280 865 369 q 766 126 817 190 q 638 27 715 63 q 456 -8 561 -8 q 277 23 351 -8 q 155 115 203 54 q 85 261 107 175 q 63 458 63 347 q 87 658 63 567 q 162 815 111 749 q 290 917 213 881 q 474 953 368 953 m 454 825 q 353 798 393 825 q 288 724 313 771 q 252 613 263 676 q 242 474 242 549 q 251 339 242 403 q 287 226 261 275 q 358 149 313 178 q 475 119 403 119 q 576 146 535 119 q 642 218 617 172 q 677 327 667 264 q 688 464 688 390 q 678 600 688 535 q 642 715 668 665 q 572 795 617 765 q 454 825 526 825 m 186 1071 l 461 1289 l 736 1071 l 675 997 l 658 1006 q 610 1028 640 1013 q 541 1068 579 1044 q 461 1122 503 1092 q 381 1068 419 1092 q 312 1028 342 1044 q 265 1006 282 1013 l 247 997 l 186 1071 z "},"Ê":{"ha":713,"x_min":97,"x_max":676,"o":"m 97 940 l 656 940 l 656 815 l 263 815 l 263 553 l 586 553 l 565 426 l 263 426 l 263 125 l 676 125 l 676 0 l 97 0 l 97 940 m 118 1071 l 393 1289 l 668 1071 l 607 997 l 590 1006 q 542 1028 572 1013 q 473 1068 511 1044 q 393 1122 435 1092 q 313 1068 351 1092 q 244 1028 274 1044 q 197 1006 214 1013 l 179 997 l 118 1071 z "},"Û":{"ha":882,"x_min":83,"x_max":799,"o":"m 247 940 l 247 358 q 301 174 247 229 q 449 119 356 119 q 588 183 543 119 q 633 358 633 246 l 633 940 l 799 940 l 799 346 q 780 210 799 274 q 718 97 761 146 q 604 20 675 49 q 431 -8 533 -8 q 266 20 332 -8 q 159 97 200 49 q 101 210 118 146 q 83 346 83 274 l 83 940 l 247 940 m 167 1071 l 442 1289 l 717 1071 l 656 997 l 639 1006 q 590 1028 621 1013 q 522 1068 560 1044 q 442 1122 483 1092 q 361 1068 400 1092 q 292 1028 322 1044 q 246 1006 263 1013 l 228 997 l 167 1071 z "},"Î":{"ha":360,"x_min":-94,"x_max":456,"o":"m 97 940 l 263 940 l 263 0 l 97 0 l 97 940 m -94 1071 l 181 1289 l 456 1071 l 394 997 l 378 1006 q 329 1028 360 1013 q 260 1068 299 1044 q 181 1122 222 1092 q 100 1068 139 1092 q 31 1028 61 1044 q -15 1006 1 1013 l -33 997 l -94 1071 z "},"Ì":{"ha":360,"x_min":-174,"x_max":263,"o":"m 97 940 l 263 940 l 263 0 l 97 0 l 97 940 m 175 997 l 139 1008 q 49 1042 103 1019 q -65 1097 -4 1064 q -174 1175 -125 1131 l -101 1289 l 214 1078 l 175 997 z "},"Ò":{"ha":928,"x_min":63,"x_max":865,"o":"m 474 953 q 651 919 578 953 q 773 825 725 886 q 843 676 821 764 q 865 478 865 588 q 841 280 865 369 q 766 126 817 190 q 638 27 715 63 q 456 -8 561 -8 q 277 23 351 -8 q 155 115 203 54 q 85 261 107 175 q 63 458 63 347 q 87 658 63 567 q 162 815 111 749 q 290 917 213 881 q 474 953 368 953 m 454 825 q 353 798 393 825 q 288 724 313 771 q 252 613 263 676 q 242 474 242 549 q 251 339 242 403 q 287 226 261 275 q 358 149 313 178 q 475 119 403 119 q 576 146 535 119 q 642 218 617 172 q 677 327 667 264 q 688 464 688 390 q 678 600 688 535 q 642 715 668 665 q 572 795 617 765 q 454 825 526 825 m 456 997 l 419 1008 q 330 1042 383 1019 q 216 1097 276 1064 q 107 1175 156 1131 l 179 1289 l 494 1078 l 456 997 z "},"È":{"ha":713,"x_min":39,"x_max":676,"o":"m 97 940 l 656 940 l 656 815 l 263 815 l 263 553 l 586 553 l 565 426 l 263 426 l 263 125 l 676 125 l 676 0 l 97 0 l 97 940 m 388 997 l 351 1008 q 262 1042 315 1019 q 148 1097 208 1064 q 39 1175 88 1131 l 111 1289 l 426 1078 l 388 997 z "},"Ù":{"ha":882,"x_min":83,"x_max":799,"o":"m 247 940 l 247 358 q 301 174 247 229 q 449 119 356 119 q 588 183 543 119 q 633 358 633 246 l 633 940 l 799 940 l 799 346 q 780 210 799 274 q 718 97 761 146 q 604 20 675 49 q 431 -8 533 -8 q 266 20 332 -8 q 159 97 200 49 q 101 210 118 146 q 83 346 83 274 l 83 940 l 247 940 m 436 997 l 400 1008 q 310 1042 364 1019 q 197 1097 257 1064 q 88 1175 136 1131 l 160 1289 l 475 1078 l 436 997 z "},"À":{"ha":840,"x_min":-7,"x_max":847,"o":"m 354 940 l 485 940 l 847 0 l 671 0 l 585 246 l 246 246 l 157 0 l -7 0 l 354 940 m 542 368 q 465 595 497 493 q 417 756 433 697 q 365 592 397 693 q 290 368 333 490 l 542 368 m 411 997 l 375 1008 q 285 1042 339 1019 q 172 1097 232 1064 q 63 1175 111 1131 l 135 1289 l 450 1078 l 411 997 z "},"à":{"ha":744,"x_min":49,"x_max":715,"o":"m 649 335 q 659 195 649 251 q 682 104 669 139 q 715 39 697 63 l 592 -11 q 558 32 574 7 q 535 85 546 54 q 521 160 524 117 q 445 34 497 76 q 304 -8 393 -8 q 191 16 239 -8 q 111 85 143 40 q 64 194 79 131 q 49 336 49 258 q 73 483 49 415 q 141 599 97 550 q 246 675 185 647 q 381 703 307 703 q 467 697 422 703 q 551 683 513 690 q 617 670 590 676 q 649 663 644 664 l 649 335 m 331 103 q 394 126 365 103 q 445 188 424 150 q 478 276 467 226 q 490 376 490 325 l 490 576 q 449 586 476 581 q 399 592 421 592 q 312 574 346 592 q 257 524 278 556 q 228 447 236 492 q 219 350 219 403 q 222 257 219 301 q 237 178 225 213 q 271 123 249 143 q 331 103 293 103 m 372 747 q 276 814 325 778 q 186 889 235 846 q 97 983 138 932 l 203 1082 l 439 819 l 372 747 z "},"ò":{"ha":718,"x_min":49,"x_max":669,"o":"m 365 708 q 597 614 525 708 q 669 354 669 519 q 650 209 669 276 q 591 92 631 142 q 492 15 551 43 q 353 -14 432 -14 q 216 10 274 -14 q 121 81 158 35 q 66 192 83 126 q 49 339 49 257 q 68 485 49 418 q 127 602 88 553 q 226 680 167 651 q 365 708 286 708 m 351 592 q 285 574 311 592 q 245 523 260 556 q 225 447 231 490 q 219 353 219 403 q 226 256 219 301 q 249 176 232 210 q 294 122 265 142 q 367 103 322 103 q 433 121 407 103 q 473 172 458 139 q 493 247 488 204 q 499 340 499 290 q 492 438 499 392 q 469 518 486 483 q 424 572 453 553 q 351 592 396 592 m 357 747 q 261 814 310 778 q 171 889 219 846 q 82 983 122 932 l 188 1082 l 424 819 l 357 747 z "},"è":{"ha":657,"x_min":49,"x_max":615,"o":"m 49 329 q 74 493 49 422 q 145 612 100 564 q 251 684 190 660 q 383 708 313 708 q 490 693 446 708 q 561 651 533 678 q 602 589 589 625 q 615 511 615 553 q 588 416 615 461 q 508 337 560 371 q 382 283 456 303 q 217 261 308 263 q 230 201 221 229 q 256 151 239 172 q 301 117 274 129 q 371 104 329 104 q 436 111 401 104 q 500 128 471 118 q 568 153 535 139 l 610 54 q 532 22 574 36 q 449 0 496 10 q 349 -10 401 -10 q 211 15 268 -10 q 118 83 154 39 q 65 190 82 128 q 49 329 49 253 m 371 600 q 295 578 325 600 q 247 523 265 557 q 222 447 229 489 q 213 361 214 404 q 326 378 279 364 q 401 415 372 393 q 444 461 431 436 q 457 511 457 486 q 433 576 457 551 q 371 600 410 600 m 357 747 q 261 814 310 778 q 171 889 219 846 q 82 983 122 932 l 188 1082 l 424 819 l 357 747 z "},"ù":{"ha":763,"x_min":83,"x_max":726,"o":"m 501 692 l 660 692 l 660 335 q 670 195 660 251 q 693 104 681 139 q 726 39 708 63 l 603 -11 q 572 28 586 4 q 549 76 561 47 q 533 143 538 104 q 428 26 496 61 q 286 -8 360 -8 q 130 56 176 -8 q 83 231 83 119 l 83 692 l 242 692 l 242 233 q 263 142 242 175 q 333 108 283 108 q 394 126 364 108 q 448 175 424 143 q 487 252 472 207 q 501 353 501 297 l 501 692 m 376 747 q 281 814 329 778 q 190 889 239 846 q 101 983 142 932 l 207 1082 l 443 819 l 376 747 z "},"ì":{"ha":340,"x_min":-90,"x_max":319,"o":"m 221 -6 q 108 38 147 -6 q 69 151 69 82 l 69 692 l 228 692 l 228 165 q 238 122 228 133 q 267 111 247 111 q 278 111 272 111 q 290 113 285 111 q 303 114 296 113 l 319 14 q 294 4 310 8 q 263 -3 282 0 q 221 -6 244 -6 m 147 749 q 69 818 110 781 q -8 894 35 850 q -90 990 -50 939 l 21 1083 l 214 819 l 147 749 z "},"Í":{"ha":360,"x_min":97,"x_max":529,"o":"m 97 940 l 263 940 l 263 0 l 97 0 l 97 940 m 142 1078 l 457 1289 l 529 1175 q 420 1097 481 1131 q 306 1042 360 1064 q 217 1008 253 1019 l 181 997 l 142 1078 z "},"Ó":{"ha":928,"x_min":63,"x_max":865,"o":"m 474 953 q 651 919 578 953 q 773 825 725 886 q 843 676 821 764 q 865 478 865 588 q 841 280 865 369 q 766 126 817 190 q 638 27 715 63 q 456 -8 561 -8 q 277 23 351 -8 q 155 115 203 54 q 85 261 107 175 q 63 458 63 347 q 87 658 63 567 q 162 815 111 749 q 290 917 213 881 q 474 953 368 953 m 454 825 q 353 798 393 825 q 288 724 313 771 q 252 613 263 676 q 242 474 242 549 q 251 339 242 403 q 287 226 261 275 q 358 149 313 178 q 475 119 403 119 q 576 146 535 119 q 642 218 617 172 q 677 327 667 264 q 688 464 688 390 q 678 600 688 535 q 642 715 668 665 q 572 795 617 765 q 454 825 526 825 m 421 1078 l 736 1289 l 808 1175 q 699 1097 760 1131 q 585 1042 639 1064 q 496 1008 532 1019 l 460 997 l 421 1078 z "},"É":{"ha":713,"x_min":97,"x_max":742,"o":"m 97 940 l 656 940 l 656 815 l 263 815 l 263 553 l 586 553 l 565 426 l 263 426 l 263 125 l 676 125 l 676 0 l 97 0 l 97 940 m 354 1078 l 669 1289 l 742 1175 q 633 1097 693 1131 q 519 1042 572 1064 q 429 1008 465 1019 l 393 997 l 354 1078 z "},"Ú":{"ha":882,"x_min":83,"x_max":799,"o":"m 247 940 l 247 358 q 301 174 247 229 q 449 119 356 119 q 588 183 543 119 q 633 358 633 246 l 633 940 l 799 940 l 799 346 q 780 210 799 274 q 718 97 761 146 q 604 20 675 49 q 431 -8 533 -8 q 266 20 332 -8 q 159 97 200 49 q 101 210 118 146 q 83 346 83 274 l 83 940 l 247 940 m 403 1078 l 718 1289 l 790 1175 q 681 1097 742 1131 q 567 1042 621 1064 q 478 1008 514 1019 l 442 997 l 403 1078 z "},"Á":{"ha":840,"x_min":-7,"x_max":847,"o":"m 354 940 l 485 940 l 847 0 l 671 0 l 585 246 l 246 246 l 157 0 l -7 0 l 354 940 m 542 368 q 465 595 497 493 q 417 756 433 697 q 365 592 397 693 q 290 368 333 490 l 542 368 m 376 1078 l 692 1289 l 764 1175 q 655 1097 715 1131 q 541 1042 594 1064 q 451 1008 488 1019 l 415 997 l 376 1078 z "},"Ý":{"ha":754,"x_min":0,"x_max":753,"o":"m 292 360 l 0 940 l 179 940 l 376 514 l 578 940 l 753 940 l 457 353 l 457 0 l 292 0 l 292 360 m 340 1078 l 656 1289 l 728 1175 q 619 1097 679 1131 q 505 1042 558 1064 q 415 1008 451 1019 l 379 997 l 340 1078 z "},"ý":{"ha":747,"x_min":83,"x_max":697,"o":"m 656 281 q 662 204 656 239 q 676 135 668 169 q 690 67 683 101 q 697 -10 697 32 q 622 -229 697 -157 q 419 -301 547 -301 q 336 -294 378 -301 q 259 -276 294 -286 q 199 -257 224 -267 q 165 -243 174 -247 l 204 -122 q 248 -140 224 -131 q 298 -157 272 -149 q 351 -171 324 -165 q 406 -176 379 -176 q 518 -130 483 -176 q 553 -10 553 -83 q 525 128 553 57 q 422 23 486 54 q 286 -8 357 -8 q 130 56 176 -8 q 83 231 83 119 l 83 692 l 242 692 l 242 235 q 263 143 242 176 q 333 110 283 110 q 390 125 360 110 q 444 167 419 140 q 484 233 468 194 q 500 315 500 271 l 500 692 l 663 692 l 656 281 m 293 819 l 529 1082 l 635 983 q 545 889 593 932 q 457 814 497 846 q 361 747 410 778 l 293 819 z "},"á":{"ha":744,"x_min":49,"x_max":715,"o":"m 649 335 q 659 195 649 251 q 682 104 669 139 q 715 39 697 63 l 592 -11 q 558 32 574 7 q 535 85 546 54 q 521 160 524 117 q 445 34 497 76 q 304 -8 393 -8 q 191 16 239 -8 q 111 85 143 40 q 64 194 79 131 q 49 336 49 258 q 73 483 49 415 q 141 599 97 550 q 246 675 185 647 q 381 703 307 703 q 467 697 422 703 q 551 683 513 690 q 617 670 590 676 q 649 663 644 664 l 649 335 m 331 103 q 394 126 365 103 q 445 188 424 150 q 478 276 467 226 q 490 376 490 325 l 490 576 q 449 586 476 581 q 399 592 421 592 q 312 574 346 592 q 257 524 278 556 q 228 447 236 492 q 219 350 219 403 q 222 257 219 301 q 237 178 225 213 q 271 123 249 143 q 331 103 293 103 m 292 819 l 528 1082 l 633 983 q 544 889 592 932 q 456 814 496 846 q 360 747 408 778 l 292 819 z "},"ó":{"ha":718,"x_min":49,"x_max":669,"o":"m 365 708 q 597 614 525 708 q 669 354 669 519 q 650 209 669 276 q 591 92 631 142 q 492 15 551 43 q 353 -14 432 -14 q 216 10 274 -14 q 121 81 158 35 q 66 192 83 126 q 49 339 49 257 q 68 485 49 418 q 127 602 88 553 q 226 680 167 651 q 365 708 286 708 m 351 592 q 285 574 311 592 q 245 523 260 556 q 225 447 231 490 q 219 353 219 403 q 226 256 219 301 q 249 176 232 210 q 294 122 265 142 q 367 103 322 103 q 433 121 407 103 q 473 172 458 139 q 493 247 488 204 q 499 340 499 290 q 492 438 499 392 q 469 518 486 483 q 424 572 453 553 q 351 592 396 592 m 278 819 l 514 1082 l 619 983 q 530 889 578 932 q 442 814 482 846 q 346 747 394 778 l 278 819 z "},"é":{"ha":657,"x_min":49,"x_max":619,"o":"m 49 329 q 74 493 49 422 q 145 612 100 564 q 251 684 190 660 q 383 708 313 708 q 490 693 446 708 q 561 651 533 678 q 602 589 589 625 q 615 511 615 553 q 588 416 615 461 q 508 337 560 371 q 382 283 456 303 q 217 261 308 263 q 230 201 221 229 q 256 151 239 172 q 301 117 274 129 q 371 104 329 104 q 436 111 401 104 q 500 128 471 118 q 568 153 535 139 l 610 54 q 532 22 574 36 q 449 0 496 10 q 349 -10 401 -10 q 211 15 268 -10 q 118 83 154 39 q 65 190 82 128 q 49 329 49 253 m 371 600 q 295 578 325 600 q 247 523 265 557 q 222 447 229 489 q 213 361 214 404 q 326 378 279 364 q 401 415 372 393 q 444 461 431 436 q 457 511 457 486 q 433 576 457 551 q 371 600 410 600 m 278 819 l 514 1082 l 619 983 q 530 889 578 932 q 442 814 482 846 q 346 747 394 778 l 278 819 z "},"ú":{"ha":763,"x_min":83,"x_max":726,"o":"m 501 692 l 660 692 l 660 335 q 670 195 660 251 q 693 104 681 139 q 726 39 708 63 l 603 -11 q 572 28 586 4 q 549 76 561 47 q 533 143 538 104 q 428 26 496 61 q 286 -8 360 -8 q 130 56 176 -8 q 83 231 83 119 l 83 692 l 242 692 l 242 233 q 263 142 242 175 q 333 108 283 108 q 394 126 364 108 q 448 175 424 143 q 487 252 472 207 q 501 353 501 297 l 501 692 m 297 819 l 533 1082 l 639 983 q 549 889 597 932 q 461 814 501 846 q 365 747 414 778 l 297 819 z "},"í":{"ha":340,"x_min":69,"x_max":382,"o":"m 221 -6 q 108 38 147 -6 q 69 151 69 82 l 69 692 l 228 692 l 228 165 q 238 122 228 133 q 267 111 247 111 q 278 111 272 111 q 290 113 285 111 q 303 114 296 113 l 319 14 q 294 4 310 8 q 263 -3 282 0 q 221 -6 244 -6 m 78 819 l 272 1083 l 382 990 q 299 894 340 939 q 222 818 257 850 q 144 749 182 781 l 78 819 z "},"õ":{"ha":718,"x_min":49,"x_max":669,"o":"m 365 708 q 597 614 525 708 q 669 354 669 519 q 650 209 669 276 q 591 92 631 142 q 492 15 551 43 q 353 -14 432 -14 q 216 10 274 -14 q 121 81 158 35 q 66 192 83 126 q 49 339 49 257 q 68 485 49 418 q 127 602 88 553 q 226 680 167 651 q 365 708 286 708 m 351 592 q 285 574 311 592 q 245 523 260 556 q 225 447 231 490 q 219 353 219 403 q 226 256 219 301 q 249 176 232 210 q 294 122 265 142 q 367 103 322 103 q 433 121 407 103 q 473 172 458 139 q 493 247 488 204 q 499 340 499 290 q 492 438 499 392 q 469 518 486 483 q 424 572 453 553 q 351 592 396 592 m 132 921 q 164 936 147 929 q 199 948 179 943 q 242 953 218 953 q 348 939 293 953 q 454 925 403 925 q 498 928 478 925 q 533 935 518 931 q 565 944 550 939 l 565 842 q 533 825 550 832 q 498 814 518 818 q 454 810 478 810 q 348 824 403 810 q 242 838 293 838 q 199 834 218 838 q 164 828 179 831 q 132 818 147 822 l 132 921 z "},"ã":{"ha":744,"x_min":49,"x_max":715,"o":"m 649 335 q 659 195 649 251 q 682 104 669 139 q 715 39 697 63 l 592 -11 q 558 32 574 7 q 535 85 546 54 q 521 160 524 117 q 445 34 497 76 q 304 -8 393 -8 q 191 16 239 -8 q 111 85 143 40 q 64 194 79 131 q 49 336 49 258 q 73 483 49 415 q 141 599 97 550 q 246 675 185 647 q 381 703 307 703 q 467 697 422 703 q 551 683 513 690 q 617 670 590 676 q 649 663 644 664 l 649 335 m 331 103 q 394 126 365 103 q 445 188 424 150 q 478 276 467 226 q 490 376 490 325 l 490 576 q 449 586 476 581 q 399 592 421 592 q 312 574 346 592 q 257 524 278 556 q 228 447 236 492 q 219 350 219 403 q 222 257 219 301 q 237 178 225 213 q 271 123 249 143 q 331 103 293 103 m 147 921 q 179 936 163 929 q 214 948 194 943 q 257 953 233 953 q 363 939 308 953 q 469 925 418 925 q 513 928 493 925 q 549 935 533 931 q 581 944 565 939 l 581 842 q 549 825 565 832 q 513 814 533 818 q 469 810 493 810 q 363 824 418 810 q 257 838 308 838 q 214 834 233 838 q 179 828 194 831 q 147 818 163 822 l 147 921 z "},"ñ":{"ha":763,"x_min":35,"x_max":678,"o":"m 521 0 l 521 449 q 500 542 521 507 q 429 578 479 578 q 367 562 397 578 q 314 515 338 546 q 276 441 290 485 q 261 343 261 397 l 261 0 l 103 0 l 103 350 q 92 490 103 433 q 68 581 81 546 q 35 646 53 621 l 160 696 q 188 658 174 681 q 210 610 199 639 q 228 546 221 582 q 332 666 264 629 q 475 703 400 703 q 630 638 582 703 q 678 464 678 574 l 678 0 l 521 0 m 218 921 q 250 936 233 929 q 285 948 265 943 q 328 953 304 953 q 434 939 379 953 q 540 925 489 925 q 584 928 564 925 q 619 935 604 931 q 651 944 636 939 l 651 842 q 619 825 636 832 q 584 814 604 818 q 540 810 564 810 q 434 824 489 810 q 328 838 379 838 q 285 834 304 838 q 250 828 265 831 q 218 818 233 822 l 218 921 z "},"Õ":{"ha":928,"x_min":63,"x_max":865,"o":"m 474 953 q 651 919 578 953 q 773 825 725 886 q 843 676 821 764 q 865 478 865 588 q 841 280 865 369 q 766 126 817 190 q 638 27 715 63 q 456 -8 561 -8 q 277 23 351 -8 q 155 115 203 54 q 85 261 107 175 q 63 458 63 347 q 87 658 63 567 q 162 815 111 749 q 290 917 213 881 q 474 953 368 953 m 454 825 q 353 798 393 825 q 288 724 313 771 q 252 613 263 676 q 242 474 242 549 q 251 339 242 403 q 287 226 261 275 q 358 149 313 178 q 475 119 403 119 q 576 146 535 119 q 642 218 617 172 q 677 327 667 264 q 688 464 688 390 q 678 600 688 535 q 642 715 668 665 q 572 795 617 765 q 454 825 526 825 m 235 1158 q 267 1174 250 1167 q 301 1185 282 1181 q 344 1190 321 1190 q 451 1176 396 1190 q 557 1163 506 1163 q 601 1165 581 1163 q 636 1172 621 1168 q 668 1182 653 1176 l 668 1079 q 636 1063 653 1069 q 601 1051 621 1056 q 557 1047 581 1047 q 451 1061 506 1047 q 344 1075 396 1075 q 301 1072 321 1075 q 267 1065 282 1068 q 235 1056 250 1060 l 235 1158 z "},"Ã":{"ha":840,"x_min":-7,"x_max":847,"o":"m 354 940 l 485 940 l 847 0 l 671 0 l 585 246 l 246 246 l 157 0 l -7 0 l 354 940 m 542 368 q 465 595 497 493 q 417 756 433 697 q 365 592 397 693 q 290 368 333 490 l 542 368 m 190 1158 q 222 1174 206 1167 q 257 1185 238 1181 q 300 1190 276 1190 q 406 1176 351 1190 q 513 1163 461 1163 q 556 1165 536 1163 q 592 1172 576 1168 q 624 1182 608 1176 l 624 1079 q 592 1063 608 1069 q 556 1051 576 1056 q 513 1047 536 1047 q 406 1061 461 1047 q 300 1075 351 1075 q 257 1072 276 1075 q 222 1065 238 1068 q 190 1056 206 1060 l 190 1158 z "},"Ñ":{"ha":915,"x_min":97,"x_max":818,"o":"m 653 940 l 818 940 l 818 -1 l 681 -1 l 364 493 q 306 584 338 533 q 247 678 275 635 q 255 585 251 633 q 258 492 258 536 l 263 0 l 97 0 l 97 943 l 226 943 l 553 454 q 609 369 581 414 q 665 282 638 324 q 660 372 663 326 q 657 449 657 417 l 653 940 m 240 1169 q 272 1185 256 1178 q 307 1197 288 1192 q 350 1201 326 1201 q 456 1188 401 1201 q 563 1174 511 1174 q 606 1176 586 1174 q 642 1183 626 1179 q 674 1193 658 1188 l 674 1090 q 642 1074 658 1081 q 606 1063 626 1067 q 563 1058 586 1058 q 456 1072 511 1058 q 350 1086 401 1086 q 307 1083 326 1086 q 272 1076 288 1079 q 240 1067 256 1071 l 240 1169 z "},"ç":{"ha":569,"x_min":49,"x_max":554,"o":"m 465 529 q 423 569 444 553 q 365 586 401 586 q 319 580 344 586 q 271 549 293 574 q 234 478 249 525 q 219 350 219 431 q 234 220 219 268 q 272 146 249 172 q 321 112 294 119 q 372 104 347 104 q 413 108 392 104 q 453 116 433 111 q 487 125 472 121 q 508 132 501 129 l 547 32 q 501 14 540 29 q 394 -8 463 -1 l 382 -65 q 472 -97 436 -69 q 507 -175 507 -124 q 492 -237 507 -212 q 454 -277 478 -262 q 401 -297 431 -292 q 343 -303 372 -303 q 278 -296 310 -303 q 224 -279 247 -289 l 246 -204 q 286 -216 261 -210 q 335 -222 311 -222 q 388 -211 372 -222 q 404 -179 404 -200 q 392 -151 404 -162 q 360 -133 379 -140 q 319 -122 342 -125 q 276 -118 297 -118 l 304 -7 q 188 27 236 0 q 109 98 140 54 q 63 200 78 142 q 49 329 49 258 q 73 492 49 421 q 140 610 97 563 q 242 683 183 658 q 367 708 300 708 q 477 683 432 708 q 554 614 522 658 l 465 529 z "},"ï":{"ha":340,"x_min":-49,"x_max":346,"o":"m 221 -6 q 108 38 147 -6 q 69 151 69 82 l 69 692 l 228 692 l 228 165 q 238 122 228 133 q 267 111 247 111 q 278 111 272 111 q 290 113 285 111 q 303 114 296 113 l 319 14 q 294 4 310 8 q 263 -3 282 0 q 221 -6 244 -6 m 115 897 q 94 836 115 861 q 31 811 72 811 q -28 835 -7 811 q -49 893 -49 860 q -27 955 -49 931 q 35 979 -6 979 q 94 956 74 979 q 115 897 115 933 m 346 897 q 324 836 346 861 q 261 811 303 811 q 201 835 222 811 q 181 893 181 860 q 202 955 181 931 q 265 979 224 979 q 325 956 304 979 q 346 897 346 933 z "},"ä":{"ha":744,"x_min":49,"x_max":715,"o":"m 649 335 q 659 195 649 251 q 682 104 669 139 q 715 39 697 63 l 592 -11 q 558 32 574 7 q 535 85 546 54 q 521 160 524 117 q 445 34 497 76 q 304 -8 393 -8 q 191 16 239 -8 q 111 85 143 40 q 64 194 79 131 q 49 336 49 258 q 73 483 49 415 q 141 599 97 550 q 246 675 185 647 q 381 703 307 703 q 467 697 422 703 q 551 683 513 690 q 617 670 590 676 q 649 663 644 664 l 649 335 m 331 103 q 394 126 365 103 q 445 188 424 150 q 478 276 467 226 q 490 376 490 325 l 490 576 q 449 586 476 581 q 399 592 421 592 q 312 574 346 592 q 257 524 278 556 q 228 447 236 492 q 219 350 219 403 q 222 257 219 301 q 237 178 225 213 q 271 123 249 143 q 331 103 293 103 m 318 904 q 296 841 318 867 q 229 815 274 815 q 167 840 189 815 q 146 901 146 865 q 168 966 146 940 q 233 992 190 992 q 296 967 274 992 q 318 904 318 942 m 596 904 q 574 841 596 867 q 507 815 551 815 q 444 840 467 815 q 422 901 422 865 q 444 966 422 940 q 511 992 467 992 q 574 967 551 992 q 596 904 596 942 z "},"ë":{"ha":657,"x_min":49,"x_max":615,"o":"m 49 329 q 74 493 49 422 q 145 612 100 564 q 251 684 190 660 q 383 708 313 708 q 490 693 446 708 q 561 651 533 678 q 602 589 589 625 q 615 511 615 553 q 588 416 615 461 q 508 337 560 371 q 382 283 456 303 q 217 261 308 263 q 230 201 221 229 q 256 151 239 172 q 301 117 274 129 q 371 104 329 104 q 436 111 401 104 q 500 128 471 118 q 568 153 535 139 l 610 54 q 532 22 574 36 q 449 0 496 10 q 349 -10 401 -10 q 211 15 268 -10 q 118 83 154 39 q 65 190 82 128 q 49 329 49 253 m 371 600 q 295 578 325 600 q 247 523 265 557 q 222 447 229 489 q 213 361 214 404 q 326 378 279 364 q 401 415 372 393 q 444 461 431 436 q 457 511 457 486 q 433 576 457 551 q 371 600 410 600 m 303 904 q 281 841 303 867 q 214 815 258 815 q 152 840 174 815 q 131 901 131 865 q 153 966 131 940 q 218 992 175 992 q 281 967 258 992 q 303 904 303 942 m 581 904 q 558 841 581 867 q 492 815 536 815 q 429 840 451 815 q 407 901 407 865 q 429 966 407 940 q 496 992 451 992 q 558 967 536 992 q 581 904 581 942 z "},"ö":{"ha":718,"x_min":49,"x_max":669,"o":"m 365 708 q 597 614 525 708 q 669 354 669 519 q 650 209 669 276 q 591 92 631 142 q 492 15 551 43 q 353 -14 432 -14 q 216 10 274 -14 q 121 81 158 35 q 66 192 83 126 q 49 339 49 257 q 68 485 49 418 q 127 602 88 553 q 226 680 167 651 q 365 708 286 708 m 351 592 q 285 574 311 592 q 245 523 260 556 q 225 447 231 490 q 219 353 219 403 q 226 256 219 301 q 249 176 232 210 q 294 122 265 142 q 367 103 322 103 q 433 121 407 103 q 473 172 458 139 q 493 247 488 204 q 499 340 499 290 q 492 438 499 392 q 469 518 486 483 q 424 572 453 553 q 351 592 396 592 m 303 904 q 281 841 303 867 q 214 815 258 815 q 152 840 174 815 q 131 901 131 865 q 153 966 131 940 q 218 992 175 992 q 281 967 258 992 q 303 904 303 942 m 581 904 q 558 841 581 867 q 492 815 536 815 q 429 840 451 815 q 407 901 407 865 q 429 966 407 940 q 496 992 451 992 q 558 967 536 992 q 581 904 581 942 z "},"ü":{"ha":763,"x_min":83,"x_max":726,"o":"m 501 692 l 660 692 l 660 335 q 670 195 660 251 q 693 104 681 139 q 726 39 708 63 l 603 -11 q 572 28 586 4 q 549 76 561 47 q 533 143 538 104 q 428 26 496 61 q 286 -8 360 -8 q 130 56 176 -8 q 83 231 83 119 l 83 692 l 242 692 l 242 233 q 263 142 242 175 q 333 108 283 108 q 394 126 364 108 q 448 175 424 143 q 487 252 472 207 q 501 353 501 297 l 501 692 m 324 904 q 301 841 324 867 q 235 815 279 815 q 173 840 194 815 q 151 901 151 865 q 174 966 151 940 q 239 992 196 992 q 301 967 279 992 q 324 904 324 942 m 601 904 q 579 841 601 867 q 513 815 557 815 q 450 840 472 815 q 428 901 428 865 q 450 966 428 940 q 517 992 472 992 q 579 967 557 992 q 601 904 601 942 z "},"ÿ":{"ha":747,"x_min":83,"x_max":697,"o":"m 656 281 q 662 204 656 239 q 676 135 668 169 q 690 67 683 101 q 697 -10 697 32 q 622 -229 697 -157 q 419 -301 547 -301 q 336 -294 378 -301 q 259 -276 294 -286 q 199 -257 224 -267 q 165 -243 174 -247 l 204 -122 q 248 -140 224 -131 q 298 -157 272 -149 q 351 -171 324 -165 q 406 -176 379 -176 q 518 -130 483 -176 q 553 -10 553 -83 q 525 128 553 57 q 422 23 486 54 q 286 -8 357 -8 q 130 56 176 -8 q 83 231 83 119 l 83 692 l 242 692 l 242 235 q 263 143 242 176 q 333 110 283 110 q 390 125 360 110 q 444 167 419 140 q 484 233 468 194 q 500 315 500 271 l 500 692 l 663 692 l 656 281 m 318 904 q 296 841 318 867 q 229 815 274 815 q 167 840 189 815 q 146 901 146 865 q 168 966 146 940 q 233 992 190 992 q 296 967 274 992 q 318 904 318 942 m 596 904 q 574 841 596 867 q 507 815 551 815 q 444 840 467 815 q 422 901 422 865 q 444 966 422 940 q 511 992 467 992 q 574 967 551 992 q 596 904 596 942 z "},"Ï":{"ha":360,"x_min":-44,"x_max":406,"o":"m 97 940 l 263 940 l 263 0 l 97 0 l 97 940 m 128 1126 q 106 1063 128 1089 q 39 1038 83 1038 q -23 1063 -1 1038 q -44 1124 -44 1088 q -22 1188 -44 1163 q 43 1214 0 1214 q 106 1189 83 1214 q 128 1126 128 1164 m 406 1126 q 383 1063 406 1089 q 317 1038 361 1038 q 254 1063 276 1038 q 232 1124 232 1088 q 254 1188 232 1163 q 321 1214 276 1214 q 383 1189 361 1214 q 406 1126 406 1164 z "},"Ä":{"ha":840,"x_min":-7,"x_max":847,"o":"m 354 940 l 485 940 l 847 0 l 671 0 l 585 246 l 246 246 l 157 0 l -7 0 l 354 940 m 542 368 q 465 595 497 493 q 417 756 433 697 q 365 592 397 693 q 290 368 333 490 l 542 368 m 367 1126 q 344 1063 367 1089 q 278 1038 322 1038 q 216 1063 238 1038 q 194 1124 194 1088 q 217 1188 194 1163 q 282 1214 239 1214 q 344 1189 322 1214 q 367 1126 367 1164 m 644 1126 q 622 1063 644 1089 q 556 1038 600 1038 q 493 1063 515 1038 q 471 1124 471 1088 q 493 1188 471 1163 q 560 1214 515 1214 q 622 1189 600 1214 q 644 1126 644 1164 z "},"Ë":{"ha":713,"x_min":97,"x_max":676,"o":"m 97 940 l 656 940 l 656 815 l 263 815 l 263 553 l 586 553 l 565 426 l 263 426 l 263 125 l 676 125 l 676 0 l 97 0 l 97 940 m 303 1126 q 281 1063 303 1089 q 214 1038 258 1038 q 152 1063 174 1038 q 131 1124 131 1088 q 153 1188 131 1163 q 218 1214 175 1214 q 281 1189 258 1214 q 303 1126 303 1164 m 581 1126 q 558 1063 581 1089 q 492 1038 536 1038 q 429 1063 451 1038 q 407 1124 407 1088 q 429 1188 407 1163 q 496 1214 451 1214 q 558 1189 536 1214 q 581 1126 581 1164 z "},"Ö":{"ha":928,"x_min":63,"x_max":865,"o":"m 474 953 q 651 919 578 953 q 773 825 725 886 q 843 676 821 764 q 865 478 865 588 q 841 280 865 369 q 766 126 817 190 q 638 27 715 63 q 456 -8 561 -8 q 277 23 351 -8 q 155 115 203 54 q 85 261 107 175 q 63 458 63 347 q 87 658 63 567 q 162 815 111 749 q 290 917 213 881 q 474 953 368 953 m 454 825 q 353 798 393 825 q 288 724 313 771 q 252 613 263 676 q 242 474 242 549 q 251 339 242 403 q 287 226 261 275 q 358 149 313 178 q 475 119 403 119 q 576 146 535 119 q 642 218 617 172 q 677 327 667 264 q 688 464 688 390 q 678 600 688 535 q 642 715 668 665 q 572 795 617 765 q 454 825 526 825 m 411 1126 q 389 1063 411 1089 q 322 1038 367 1038 q 260 1063 282 1038 q 239 1124 239 1088 q 261 1188 239 1163 q 326 1214 283 1214 q 389 1189 367 1214 q 411 1126 411 1164 m 689 1126 q 667 1063 689 1089 q 600 1038 644 1038 q 538 1063 560 1038 q 515 1124 515 1088 q 538 1188 515 1163 q 604 1214 560 1214 q 667 1189 644 1214 q 689 1126 689 1164 z "},"Ü":{"ha":882,"x_min":83,"x_max":799,"o":"m 247 940 l 247 358 q 301 174 247 229 q 449 119 356 119 q 588 183 543 119 q 633 358 633 246 l 633 940 l 799 940 l 799 346 q 780 210 799 274 q 718 97 761 146 q 604 20 675 49 q 431 -8 533 -8 q 266 20 332 -8 q 159 97 200 49 q 101 210 118 146 q 83 346 83 274 l 83 940 l 247 940 m 388 1126 q 365 1063 388 1089 q 299 1038 343 1038 q 237 1063 258 1038 q 215 1124 215 1088 q 238 1188 215 1163 q 303 1214 260 1214 q 365 1189 343 1214 q 388 1126 388 1164 m 665 1126 q 643 1063 665 1089 q 576 1038 621 1038 q 514 1063 536 1038 q 492 1124 492 1088 q 514 1188 492 1163 q 581 1214 536 1214 q 643 1189 621 1214 q 665 1126 665 1164 z "},"Ÿ":{"ha":754,"x_min":0,"x_max":753,"o":"m 292 360 l 0 940 l 179 940 l 376 514 l 578 940 l 753 940 l 457 353 l 457 0 l 292 0 l 292 360 m 324 1126 q 301 1063 324 1089 q 235 1038 279 1038 q 173 1063 194 1038 q 151 1124 151 1088 q 174 1188 151 1163 q 239 1214 196 1214 q 301 1189 279 1214 q 324 1126 324 1164 m 601 1126 q 579 1063 601 1089 q 513 1038 557 1038 q 450 1063 472 1038 q 428 1124 428 1088 q 450 1188 428 1163 q 517 1214 472 1214 q 579 1189 557 1214 q 601 1126 601 1164 z "},"Ç":{"ha":726,"x_min":65,"x_max":699,"o":"m 614 751 q 544 806 581 788 q 458 825 507 825 q 358 798 399 825 q 292 723 317 771 q 256 611 267 675 q 244 474 244 547 q 255 336 244 400 q 291 224 265 272 q 360 147 317 175 q 471 119 404 119 q 532 125 503 119 q 585 137 561 131 q 626 149 610 143 q 646 156 642 154 l 685 39 l 671 33 q 629 19 656 26 q 566 3 603 11 q 485 -7 529 -4 l 472 -65 q 562 -97 526 -69 q 597 -175 597 -124 q 583 -237 597 -212 q 544 -277 568 -262 q 492 -297 521 -292 q 435 -303 463 -303 q 369 -296 400 -303 q 314 -279 338 -289 l 336 -204 q 376 -216 351 -210 q 425 -222 401 -222 q 478 -211 463 -222 q 494 -179 494 -200 q 482 -151 494 -162 q 451 -133 469 -140 q 410 -122 432 -125 q 367 -118 388 -118 l 394 -6 q 148 126 231 8 q 65 458 65 244 q 90 659 65 568 q 166 815 115 750 q 294 917 217 881 q 475 953 371 953 q 612 922 558 953 q 699 853 665 892 l 614 751 z "},"Å":{"ha":840,"x_min":-7,"x_max":847,"o":"m 281 1010 q 320 1109 281 1069 q 421 1149 360 1149 q 519 1110 481 1149 q 557 1010 557 1071 q 542 944 557 974 q 501 896 526 915 l 847 0 l 671 0 l 585 246 l 246 246 l 157 0 l -7 0 l 336 894 q 295 944 310 914 q 281 1010 281 974 m 542 368 q 465 595 497 493 q 417 756 433 697 q 365 592 397 693 q 290 368 333 490 l 542 368 m 358 1011 q 369 966 358 985 q 399 940 379 947 l 436 940 q 479 1010 479 951 q 463 1060 479 1042 q 418 1079 447 1079 q 358 1011 358 1079 z "},"å":{"ha":744,"x_min":49,"x_max":715,"o":"m 649 335 q 659 195 649 251 q 682 104 669 139 q 715 39 697 63 l 592 -11 q 558 32 574 7 q 535 85 546 54 q 521 160 524 117 q 445 34 497 76 q 304 -8 393 -8 q 191 16 239 -8 q 111 85 143 40 q 64 194 79 131 q 49 336 49 258 q 73 483 49 415 q 141 599 97 550 q 246 675 185 647 q 381 703 307 703 q 467 697 422 703 q 551 683 513 690 q 617 670 590 676 q 649 663 644 664 l 649 335 m 331 103 q 394 126 365 103 q 445 188 424 150 q 478 276 467 226 q 490 376 490 325 l 490 576 q 449 586 476 581 q 399 592 421 592 q 312 574 346 592 q 257 524 278 556 q 228 447 236 492 q 219 350 219 403 q 222 257 219 301 q 237 178 225 213 q 271 123 249 143 q 331 103 293 103 m 233 897 q 273 997 233 957 q 374 1036 313 1036 q 472 997 433 1036 q 510 897 510 958 q 470 797 510 838 q 369 757 431 757 q 272 797 310 757 q 233 897 233 838 m 311 899 q 327 846 311 867 q 371 825 343 825 q 416 844 400 825 q 432 897 432 864 q 416 948 432 929 q 371 967 400 967 q 311 899 311 967 z "},"d":{"ha":744,"x_min":49,"x_max":715,"o":"m 592 -11 q 579 2 589 -10 q 558 35 569 14 q 535 87 546 56 q 521 160 524 118 q 445 34 497 76 q 304 -8 393 -8 q 191 16 239 -8 q 111 85 143 40 q 64 194 79 131 q 49 336 49 258 q 73 483 49 415 q 141 599 97 550 q 246 675 185 647 q 381 703 307 703 q 434 700 406 703 q 490 693 463 697 l 490 1007 l 649 979 l 649 335 q 658 197 649 251 q 681 108 668 142 q 703 58 693 74 q 715 39 714 43 l 592 -11 m 331 104 q 394 128 365 104 q 445 190 424 151 q 478 276 467 228 q 490 376 490 325 l 490 576 q 449 586 476 581 q 399 592 421 592 q 312 574 346 592 q 257 524 278 556 q 228 447 236 492 q 219 350 219 403 q 222 257 219 301 q 237 178 225 213 q 271 124 249 144 q 331 104 293 104 z "},"g":{"ha":738,"x_min":49,"x_max":688,"o":"m 194 -122 q 239 -140 215 -131 q 289 -157 263 -149 q 342 -171 315 -165 q 396 -176 369 -176 q 508 -130 474 -176 q 543 -10 543 -83 q 513 136 543 63 q 438 28 489 65 q 304 -8 388 -8 q 191 16 239 -8 q 111 85 143 40 q 64 194 79 131 q 49 336 49 258 q 73 483 49 415 q 141 599 97 550 q 246 675 185 647 q 381 703 307 703 q 452 699 414 703 q 527 688 490 694 q 597 675 564 682 q 653 663 629 668 l 646 281 q 651 204 644 239 q 665 135 657 169 q 681 67 674 101 q 688 -10 688 32 q 613 -229 688 -157 q 410 -301 538 -301 q 326 -294 368 -301 q 249 -276 285 -286 q 189 -257 214 -267 q 156 -243 164 -247 l 194 -122 m 331 103 q 392 125 364 103 q 443 184 421 147 q 478 268 465 221 q 490 365 490 315 l 490 576 q 449 586 476 581 q 399 592 421 592 q 312 574 346 592 q 257 524 278 556 q 228 447 236 492 q 219 350 219 403 q 222 257 219 301 q 237 178 225 213 q 271 123 249 143 q 331 103 293 103 z "}}}
